<svg width="16" height="16" viewBox="0 0 16 16" fill="none" xmlns="http://www.w3.org/2000/svg">
<path d="M3.52743 8.43333L4.21645 7.73333L6.59672 10.2667L11.3572 4.33333L12.0463 5L6.65935 11.7333L3.52743 8.43333Z" fill="#1890FF"/>
<path fill-rule="evenodd" clip-rule="evenodd" d="M15.4287 8C15.4287 12.4183 12.0635 16 7.91212 16C3.76076 16 0.395508 12.4183 0.395508 8C0.395508 3.58167 3.76076 0 7.91212 0C12.0635 0 15.4287 3.58167 15.4287 8ZM14.4892 8C14.4892 11.866 11.5445 15 7.91212 15C4.27972 15 1.33508 11.866 1.33508 8C1.33508 4.134 4.27972 1 7.91212 1C11.5445 1 14.4892 4.134 14.4892 8Z" fill="#1890FF"/>
</svg>
