<svg width="11" height="13" viewBox="0 0 11 13" fill="none" xmlns="http://www.w3.org/2000/svg">
<path d="M1.52002 11.4774C1.55933 12.0277 2.01791 12.447 2.5682 12.447H7.73049C8.28079 12.447 8.73937 12.0277 8.77867 11.4774L9.40758 3.91742H0.891113L1.52002 11.4774ZM6.94436 5.68622C6.95746 5.48969 7.12779 5.34557 7.32432 5.35867C7.52086 5.37177 7.66498 5.5421 7.65188 5.73863L7.32432 10.7044C7.31122 10.9009 7.14089 11.045 6.94436 11.0319C6.74782 11.0188 6.6037 10.8485 6.6168 10.652L6.94436 5.68622ZM4.79559 5.69933C4.79559 5.50279 4.95281 5.34557 5.14935 5.34557C5.34588 5.34557 5.50311 5.50279 5.50311 5.69933V10.6651C5.50311 10.8616 5.34588 11.0188 5.14935 11.0188C4.95281 11.0188 4.79559 10.8616 4.79559 10.6651V5.69933ZM2.98748 5.34557C3.18401 5.33246 3.35434 5.47659 3.36744 5.67312L3.695 10.6389C3.7081 10.8354 3.56397 11.0057 3.36744 11.0188C3.17091 11.0319 3.00058 10.8878 2.98748 10.6913L2.65992 5.72553C2.63371 5.529 2.79094 5.35867 2.98748 5.34557Z" fill="#002233"/>
<path d="M9.15848 1.79501H7.19314C7.07522 0.786136 6.22357 0 5.1885 0H5.09678C4.0617 0 3.21005 0.786136 3.10524 1.79501H1.1399C0.510988 1.79501 0 2.306 0 2.93491C0 3.09213 0.11792 3.21005 0.275148 3.21005H10.0232C10.1805 3.21005 10.2984 3.09213 10.2984 2.93491C10.2984 2.306 9.78739 1.79501 9.15848 1.79501ZM5.10988 1.06128H5.2016C5.64707 1.06128 6.01394 1.37574 6.11876 1.79501H4.19272C4.28444 1.37574 4.66441 1.06128 5.10988 1.06128Z" fill="#002233"/>
</svg>
