<svg width="12" height="12" viewBox="0 0 12 12" fill="none" xmlns="http://www.w3.org/2000/svg">
<path d="M5.06427 1.32654C5.35761 1.32654 5.5954 1.57953 5.5954 1.89161C5.5954 2.20369 5.35761 2.45667 5.06427 2.45667H1.06226V10.8699H8.97015V6.58712C8.97015 6.27504 9.20795 6.02205 9.50128 6.02205C9.79462 6.02205 10.0324 6.27504 10.0324 6.58712V10.8699C10.0324 11.494 9.55682 12 8.97015 12H1.06226C0.475588 12 0 11.494 0 10.8699V2.45667C0 1.83252 0.475588 1.32654 1.06226 1.32654H5.06427ZM8.4734 1.38986L9.91016 2.93801L5.23856 7.97184C5.14977 8.06751 5.03421 8.12901 4.90974 8.14683L3.44475 8.35657L3.6394 6.77799C3.65594 6.64387 3.71301 6.51935 3.8018 6.42368L8.4734 1.38986ZM9.59587 0.180357C9.81904 -0.0601189 10.1809 -0.0601189 10.404 0.180357L11.0326 0.857676C11.2558 1.09815 11.2558 1.48804 11.0326 1.72852L10.4489 2.35746L9.01218 0.809296L9.59587 0.180357Z" fill="#002233"/>
</svg>
