<svg width="16" height="17" viewBox="0 0 16 17" fill="none" xmlns="http://www.w3.org/2000/svg">
<path d="M7.97945 13.9091H8.0002H8.02095C8.31146 13.9091 8.58122 13.7469 8.74723 13.5036C9.63951 11.9829 12.6899 6.63013 12.6899 4.42009C12.6899 1.80453 10.6563 0 8.16621 0C8.10396 0 8.06245 0 8.0002 0C7.93795 0 7.89645 0 7.8342 0C5.34411 0 3.31055 1.80453 3.31055 4.42009C3.31055 6.63013 6.3609 11.9829 7.25318 13.5036C7.39843 13.7469 7.66819 13.9091 7.97945 13.9091ZM5.82138 4.50119C5.82138 3.32521 6.79666 2.37225 8.0002 2.37225C9.20374 2.37225 10.179 3.32521 10.179 4.50119C10.179 5.67718 9.20374 6.63013 8.0002 6.63013C6.79666 6.63013 5.82138 5.67718 5.82138 4.50119Z" fill="#1890FF"/>
<path d="M15.9799 16.3589L14.2339 10.1485C14.1715 9.92811 13.9637 9.78787 13.735 9.78787H11.0537C10.8874 10.1084 10.7211 10.449 10.534 10.7896H13.3609L14.8159 15.9983H1.20111L2.65613 10.7896H5.48302C5.29594 10.449 5.10887 10.1084 4.96337 9.78787H2.26119C2.03255 9.78787 1.82469 9.94814 1.76233 10.1485L0.0163089 16.3589C-0.025263 16.5192 0.0163088 16.6795 0.0994526 16.7997C0.203382 16.9199 0.348884 17 0.515172 17H15.4811C15.6474 17 15.7929 16.9199 15.8968 16.7997C16.0007 16.6795 16.0215 16.5192 15.9799 16.3589Z" fill="#1890FF"/>
</svg>
