<svg width="72" height="23" viewBox="0 0 72 23" fill="none" xmlns="http://www.w3.org/2000/svg">
<rect width="72" height="23" rx="3" transform="matrix(-1 0 0 1 72 0)" fill="#1890FF"/>
<rect width="35" height="21" rx="2" transform="matrix(-1 0 0 1 36 1)" fill="white"/>
<path d="M17.4839 14.8032H17.4982H17.5125C17.7125 14.8032 17.8983 14.6889 18.0126 14.5174C18.6271 13.4456 20.7278 9.67294 20.7278 8.1153C20.7278 6.27184 19.3273 5 17.6125 5C17.5696 5 17.541 5 17.4982 5C17.4553 5 17.4267 5 17.3839 5C15.669 5 14.2686 6.27184 14.2686 8.1153C14.2686 9.67294 16.3692 13.4456 16.9837 14.5174C17.0838 14.6889 17.2695 14.8032 17.4839 14.8032ZM15.9977 8.17246C15.9977 7.34362 16.6693 6.67197 17.4982 6.67197C18.327 6.67197 18.9987 7.34362 18.9987 8.17246C18.9987 9.0013 18.327 9.67294 17.4982 9.67294C16.6693 9.67294 15.9977 9.0013 15.9977 8.17246Z" fill="#1890FF"/>
<path d="M22.9862 16.8611L21.7858 12.4311C21.7429 12.2739 21.6 12.1738 21.4428 12.1738H19.5994C19.4851 12.4025 19.3707 12.6454 19.2421 12.8883H21.1856L22.1859 16.6038H12.8258L13.8261 12.8883H15.7696C15.641 12.6454 15.5123 12.4025 15.4123 12.1738H13.5546C13.3974 12.1738 13.2545 12.2882 13.2116 12.4311L12.0112 16.8611C11.9826 16.9754 12.0112 17.0897 12.0684 17.1754C12.1398 17.2612 12.2399 17.3184 12.3542 17.3184H22.6432C22.7576 17.3184 22.8576 17.2612 22.929 17.1754C23.0005 17.0897 23.0148 16.9754 22.9862 16.8611Z" fill="#1890FF"/>
<path d="M59.8824 6.29412H51.2941C51.2294 6.29412 51.1765 6.34706 51.1765 6.41176V7.23529C51.1765 7.3 51.2294 7.35294 51.2941 7.35294H59.8824C59.9471 7.35294 60 7.3 60 7.23529V6.41176C60 6.34706 59.9471 6.29412 59.8824 6.29412ZM59.8824 10.4706H51.2941C51.2294 10.4706 51.1765 10.5235 51.1765 10.5882V11.4118C51.1765 11.4765 51.2294 11.5294 51.2941 11.5294H59.8824C59.9471 11.5294 60 11.4765 60 11.4118V10.5882C60 10.5235 59.9471 10.4706 59.8824 10.4706ZM59.8824 14.6471H51.2941C51.2294 14.6471 51.1765 14.7 51.1765 14.7647V15.5882C51.1765 15.6529 51.2294 15.7059 51.2941 15.7059H59.8824C59.9471 15.7059 60 15.6529 60 15.5882V14.7647C60 14.7 59.9471 14.6471 59.8824 14.6471ZM48 6.82353C48 6.93168 48.0213 7.03877 48.0627 7.13868C48.1041 7.2386 48.1647 7.32938 48.2412 7.40585C48.3177 7.48232 48.4085 7.54298 48.5084 7.58437C48.6083 7.62576 48.7154 7.64706 48.8235 7.64706C48.9317 7.64706 49.0388 7.62576 49.1387 7.58437C49.2386 7.54298 49.3294 7.48232 49.4059 7.40585C49.4823 7.32938 49.543 7.2386 49.5844 7.13868C49.6258 7.03877 49.6471 6.93168 49.6471 6.82353C49.6471 6.71538 49.6258 6.60829 49.5844 6.50838C49.543 6.40846 49.4823 6.31768 49.4059 6.24121C49.3294 6.16473 49.2386 6.10407 49.1387 6.06269C49.0388 6.0213 48.9317 6 48.8235 6C48.7154 6 48.6083 6.0213 48.5084 6.06269C48.4085 6.10407 48.3177 6.16473 48.2412 6.24121C48.1647 6.31768 48.1041 6.40846 48.0627 6.50838C48.0213 6.60829 48 6.71538 48 6.82353ZM48 11C48 11.1081 48.0213 11.2152 48.0627 11.3152C48.1041 11.4151 48.1647 11.5059 48.2412 11.5823C48.3177 11.6588 48.4085 11.7195 48.5084 11.7608C48.6083 11.8022 48.7154 11.8235 48.8235 11.8235C48.9317 11.8235 49.0388 11.8022 49.1387 11.7608C49.2386 11.7195 49.3294 11.6588 49.4059 11.5823C49.4823 11.5059 49.543 11.4151 49.5844 11.3152C49.6258 11.2152 49.6471 11.1081 49.6471 11C49.6471 10.8919 49.6258 10.7848 49.5844 10.6848C49.543 10.5849 49.4823 10.4941 49.4059 10.4177C49.3294 10.3412 49.2386 10.2805 49.1387 10.2392C49.0388 10.1978 48.9317 10.1765 48.8235 10.1765C48.7154 10.1765 48.6083 10.1978 48.5084 10.2392C48.4085 10.2805 48.3177 10.3412 48.2412 10.4177C48.1647 10.4941 48.1041 10.5849 48.0627 10.6848C48.0213 10.7848 48 10.8919 48 11ZM48 15.1765C48 15.2846 48.0213 15.3917 48.0627 15.4916C48.1041 15.5915 48.1647 15.6823 48.2412 15.7588C48.3177 15.8353 48.4085 15.8959 48.5084 15.9373C48.6083 15.9787 48.7154 16 48.8235 16C48.9317 16 49.0388 15.9787 49.1387 15.9373C49.2386 15.8959 49.3294 15.8353 49.4059 15.7588C49.4823 15.6823 49.543 15.5915 49.5844 15.4916C49.6258 15.3917 49.6471 15.2846 49.6471 15.1765C49.6471 15.0683 49.6258 14.9612 49.5844 14.8613C49.543 14.7614 49.4823 14.6706 49.4059 14.5941C49.3294 14.5177 49.2386 14.457 49.1387 14.4156C49.0388 14.3742 48.9317 14.3529 48.8235 14.3529C48.7154 14.3529 48.6083 14.3742 48.5084 14.4156C48.4085 14.457 48.3177 14.5177 48.2412 14.5941C48.1647 14.6706 48.1041 14.7614 48.0627 14.8613C48.0213 14.9612 48 15.0683 48 15.1765Z" fill="white"/>
</svg>
