<svg width="12" height="12" viewBox="0 0 12 12" fill="none" xmlns="http://www.w3.org/2000/svg">
<path d="M11.0859 6.29131C11.3109 5.99399 11.4355 5.6297 11.4355 5.25068C11.4355 4.64934 11.0993 4.08015 10.5582 3.76274C10.419 3.68103 10.2604 3.63803 10.0989 3.63818H6.88726L6.96762 1.9922C6.98637 1.59443 6.84575 1.21675 6.57253 0.928807C6.43845 0.786881 6.27669 0.673959 6.09724 0.59702C5.91779 0.520081 5.72447 0.480759 5.52923 0.481486C4.8328 0.481486 4.21673 0.950236 4.03191 1.62122L2.88146 5.7864H1.14976C0.912709 5.7864 0.721191 5.97792 0.721191 6.21497V11.09C0.721191 11.327 0.912709 11.5185 1.14976 11.5185H9.20289C9.3261 11.5185 9.44664 11.4944 9.5578 11.4462C10.1953 11.1743 10.6065 10.5516 10.6065 9.86051C10.6065 9.69175 10.5824 9.52568 10.5341 9.36497C10.7591 9.06765 10.8837 8.70336 10.8837 8.32434C10.8837 8.15559 10.8596 7.98952 10.8114 7.82881C11.0364 7.53149 11.1609 7.1672 11.1609 6.78818C11.1582 6.61943 11.1341 6.45202 11.0859 6.29131ZM1.68548 10.5543V6.75068H2.7703V10.5543H1.68548ZM10.2087 5.82658L9.91539 6.08104L10.1015 6.42122C10.1629 6.53328 10.1947 6.6591 10.194 6.78684C10.194 7.00783 10.0975 7.21809 9.93146 7.36274L9.63815 7.6172L9.82432 7.95738C9.88565 8.06944 9.91745 8.19526 9.91673 8.323C9.91673 8.54399 9.8203 8.75425 9.65423 8.8989L9.36092 9.15336L9.54708 9.49354C9.60841 9.6056 9.64022 9.73142 9.63949 9.85917C9.63949 10.1592 9.46271 10.4297 9.18949 10.5529H3.62744V6.70783L4.96003 1.8797C4.99439 1.75595 5.06816 1.64677 5.17014 1.56871C5.27213 1.49065 5.39678 1.44796 5.52521 1.44711C5.62699 1.44711 5.72744 1.47658 5.8078 1.53684C5.94039 1.63595 6.01137 1.78595 6.00333 1.94533L5.87476 4.60247H10.0855C10.3239 4.74845 10.4712 4.99488 10.4712 5.25068C10.4712 5.47166 10.3748 5.68059 10.2087 5.82658Z" fill="black" fill-opacity="0.65"/>
</svg>
