<svg width="12" height="12" viewBox="0 0 12 12" fill="none" xmlns="http://www.w3.org/2000/svg">
<path d="M11.0859 5.71316C11.1341 5.55244 11.1582 5.38637 11.1582 5.21762C11.1582 4.8386 11.0337 4.47432 10.8087 4.17699C10.8569 4.01628 10.881 3.85021 10.881 3.68146C10.881 3.30244 10.7565 2.93816 10.5315 2.64083C10.5797 2.48012 10.6038 2.31405 10.6038 2.1453C10.6038 1.45423 10.1926 0.831459 9.55512 0.559584C9.44306 0.511274 9.32223 0.486651 9.20021 0.487262H1.14976C0.912709 0.487262 0.721191 0.67878 0.721191 0.915834V5.79083C0.721191 6.02789 0.912709 6.21941 1.14976 6.21941H2.88146L4.03057 10.3819C4.21539 11.0529 4.83146 11.5216 5.52789 11.5216C5.92566 11.5216 6.29664 11.3636 6.57119 11.0743C6.84574 10.7864 6.98637 10.4087 6.96628 10.0109L6.88592 8.36494H10.0989C10.2609 8.36494 10.419 8.32208 10.5582 8.24039C11.0993 7.92566 11.4355 7.35512 11.4355 6.75378C11.4355 6.37476 11.3109 6.01048 11.0859 5.71316ZM1.68548 5.25378V1.45021H2.7703V5.25378H1.68548ZM10.0855 7.402H5.87476L6.00333 10.0591C6.01137 10.2185 5.94039 10.3685 5.8078 10.4676C5.7261 10.5279 5.62566 10.5587 5.52521 10.5574C5.39688 10.5561 5.27242 10.5133 5.17051 10.4353C5.0686 10.3573 4.99475 10.2483 4.96003 10.1248L3.62744 5.29664V1.45021H9.19083C9.3247 1.5102 9.43839 1.6076 9.51822 1.73067C9.59805 1.85374 9.64063 1.99726 9.64083 2.14396C9.64083 2.27387 9.61003 2.39708 9.54842 2.50958L9.36226 2.84976L9.65557 3.10423C9.73812 3.17573 9.8043 3.26418 9.8496 3.36356C9.8949 3.46293 9.91825 3.57091 9.91807 3.68012C9.91807 3.81003 9.88726 3.93324 9.82565 4.04574L9.63949 4.38592L9.9328 4.64039C10.0154 4.71189 10.0815 4.80034 10.1268 4.89972C10.1721 4.99909 10.1955 5.10707 10.1953 5.21628C10.1953 5.34619 10.1645 5.46941 10.1029 5.58191L9.91539 5.92342L10.2087 6.17789C10.2912 6.24939 10.3574 6.33784 10.4027 6.43722C10.448 6.53659 10.4714 6.64457 10.4712 6.75378C10.4712 7.00958 10.3239 7.25601 10.0855 7.402Z" fill="black" fill-opacity="0.65"/>
</svg>
