<svg width="16" height="19" viewBox="0 0 16 19" fill="none" xmlns="http://www.w3.org/2000/svg">
<path d="M14.1487 19H1.85151C2.27314 17.8007 3.04269 16.7346 4.04658 15.9569H11.9539C12.9575 16.7349 13.7268 17.8011 14.1487 19ZM0.618241 4.03479C0.6848 3.71562 1.56905 0 6.43115 0H9.41971C14.3162 0 15.1622 3.67576 15.2329 4.03368V6.77437C14.2736 7.12936 13.3453 9.0664 12.8478 10.8839C12.7534 11.2273 12.6723 11.5729 12.6057 11.9144H3.39419C3.32791 11.5749 3.24677 11.2292 3.15243 10.8839C2.62904 8.97232 1.62928 6.92628 0.618238 6.73074V4.03479H0.618241ZM0.00408397 8.56256C0.0337883 7.75348 0.230163 7.33995 0.412239 7.28894C0.838822 7.16894 1.92165 8.52465 2.60979 11.0365C2.72145 11.4447 2.81331 11.8531 2.88372 12.2502L2.92498 12.4853H13.075L13.1165 12.2502C13.1872 11.8504 13.279 11.4421 13.3901 11.0366C14.0524 8.61914 15.0803 7.28225 15.5376 7.28225C15.5552 7.28225 15.5717 7.28448 15.5882 7.28908C15.7698 7.33995 15.9661 7.75348 15.9959 8.56256C16.0278 9.42377 15.8748 10.5197 15.5657 11.6485C14.8778 14.1605 13.7909 15.5184 13.3676 15.3963L2.66947 15.386L2.63234 15.3963C2.20603 15.5184 1.12211 14.1605 0.434517 11.6485C0.125374 10.5197 -0.0275468 9.42376 0.00408397 8.56256Z" fill="black"/>
</svg>
