<svg width="22" height="18" viewBox="0 0 22 18" fill="none" xmlns="http://www.w3.org/2000/svg">
<path d="M7.41296 12.7894V13.4999C7.41296 13.7614 7.62722 13.9736 7.89122 13.9736H14.1085C14.3728 13.9736 14.5868 13.7614 14.5868 13.4999V12.7894C14.5868 12.5279 14.3728 12.3157 14.1085 12.3157H7.89122C7.62722 12.3157 7.41296 12.5279 7.41296 12.7894ZM5.73907 11.6052V10.421L2.39128 8.99988V10.1841C2.39128 10.9688 3.03381 11.6052 3.82605 11.6052H5.73907ZM19.6085 8.99988L16.2607 10.421V11.6052H18.1737C18.9662 11.6052 19.6085 10.9688 19.6085 10.1841V8.99988ZM17.9499 4.97351L17.1027 2.66806C16.8368 1.94355 16.1313 1.43978 15.3518 1.42155L11.7175 1.42107H10.9999L6.64847 1.42155C5.86867 1.43978 5.16325 1.94355 4.89734 2.66806L4.05035 4.97351L3.65148 6.05874C3.99893 6.41187 4.4846 6.63143 5.02192 6.63143H16.9783C17.5159 6.63143 18.0013 6.41187 18.3488 6.05874L17.9499 4.97351ZM2.52328 4.97351L3.5489 2.18253C4.01854 0.902143 5.24527 0.0331584 6.62264 0.000710597L11.0001 0H11.7173L15.3776 0.000710597C16.755 0.0331584 17.9815 0.902143 18.4513 2.18253L19.477 4.97351H21.5217C21.786 4.97351 22 5.18573 22 5.4472V6.15774C22 6.41922 21.786 6.63143 21.5217 6.63143H20.2046C20.7295 7.28015 21.0435 8.10366 21.0435 8.99988V17.2895C21.0435 17.6819 20.7226 18 20.3261 18H19.3696C18.9736 18 18.6522 17.6819 18.6522 17.2895V15.6315H3.34803V17.2895C3.34803 17.6819 3.02688 18 2.63065 18H1.67413C1.2779 18 0.956751 17.6819 0.956751 17.2895V8.99988C0.956751 8.10366 1.27073 7.28015 1.79585 6.63143H0.478256C0.214259 6.63143 0 6.41922 0 6.15774V5.4472C0 5.18573 0.214259 4.97351 0.478256 4.97351H2.52328Z" fill="black"/>
</svg>
