<svg width="48" height="44" viewBox="0 0 48 44" fill="none" xmlns="http://www.w3.org/2000/svg">
<path d="M20.2461 18.6342H25.3488V25.4763H20.2461V18.6342Z" fill="#E69871"/>
<path d="M26.9088 37.6859V24.4388L26.0891 23.9964L22.7957 24.6386L19.5023 23.9964L19.3613 24.0725V37.6859H26.9088Z" fill="#D5D6DB"/>
<path d="M31.2794 27.1215C30.8871 26.6961 30.4255 26.3374 29.9135 26.061L26.627 24.2861L26.0898 23.9957L25.7762 24.0563C25.5604 25.7597 24.7301 31.5594 22.7986 37.2007C20.867 31.561 20.0352 25.7628 19.8193 24.0579L19.5026 23.9957L18.9733 24.2815L15.6774 26.061C15.1653 26.3374 14.7037 26.6961 14.313 27.1215C13.4354 28.0734 12.9502 29.3125 12.9502 30.5982V36.7087C12.9502 37.7256 13.7867 38.5501 14.8185 38.5501H30.7739C31.8057 38.5501 32.6422 37.7256 32.6422 36.7087V30.5982C32.6422 29.3125 32.157 28.0734 31.2794 27.1215Z" fill="#2F4859"/>
<path d="M24.1663 25.824L23.4824 24.6565L22.7968 24.6385L22.1146 24.6565L21.4307 25.824L22.101 26.9684L21.4307 35.2167L22.7985 37.755L24.1663 35.3099L23.4958 26.9687L24.1663 25.824Z" fill="#27A2DB"/>
<path d="M25.3482 22.7121L22.7969 24.6385L24.9175 27.3355L26.0903 23.9964L25.3482 22.7121Z" fill="#EBF0F3"/>
<path d="M20.246 22.7121L22.7973 24.6385L20.6767 27.3355L19.5039 23.9964L20.246 22.7121Z" fill="#EBF0F3"/>
<path d="M26.8043 28.3607L26.6279 24.2861L25.837 23.5579C25.837 23.5579 25.8181 23.7333 25.7771 24.0563C25.5613 25.7597 24.731 31.5594 22.7994 37.2007C20.8679 31.561 20.036 25.7628 19.8202 24.0579C19.7792 23.7349 19.7603 23.5579 19.7603 23.5579L18.9742 24.2815L18.9694 24.2861L18.793 28.3607L19.5067 29.0656L19.2436 30.2535C19.8281 32.8653 22.7987 37.7551 22.7987 37.7551C22.7987 37.7551 25.7692 32.8653 26.3537 30.2535L26.0906 29.0656L26.8043 28.3607Z" fill="#3A556A"/>
<path d="M26.963 18.1521C27.0125 17.4252 26.8366 16.8217 26.5701 16.804C26.3036 16.7864 26.0474 17.3614 25.9979 18.0883C25.9483 18.8152 26.1243 19.4187 26.3908 19.4364C26.6573 19.454 26.9135 18.879 26.963 18.1521Z" fill="#F0A67A"/>
<path d="M19.0208 18.4335C19.2871 18.4146 19.4704 17.9557 19.4303 17.4086C19.3903 16.8616 19.1419 16.4334 18.8757 16.4524C18.6094 16.4713 18.4261 16.9302 18.4661 17.4773C18.5062 18.0243 18.7546 18.4525 19.0208 18.4335Z" fill="#FCD462"/>
<path d="M26.5396 18.5125L26.3892 14.1376L25.8629 12.727L22.787 11.9092L19.7111 12.727L19.1848 14.1376L18.377 16.2464L18.6845 18.4347C18.6845 18.4347 18.859 19.5756 19.26 20.3524C19.661 21.1293 20.037 21.484 20.5633 22.0017C21.0896 22.5194 21.7776 22.68 22.787 22.7121C23.7964 22.68 24.4844 22.5194 25.0108 22.0017C25.5371 21.484 25.913 21.1293 26.314 20.3524C26.715 19.5756 26.5396 18.5125 26.5396 18.5125Z" fill="#F0A67A"/>
<path d="M27.4893 13.0947C27.0133 12.5961 27.1455 11.8351 26.1934 11.2578C25.2414 10.6805 24.5009 10.8379 24.2894 11.2578C24.2894 11.2578 23.0728 10.2081 21.6713 10.3918C20.2696 10.5755 20.4547 11.0479 19.5291 11.5989C18.6035 12.15 18.154 12.8061 17.9424 13.6458C17.7308 14.4855 18.1011 14.1444 17.9424 14.8004C17.7837 15.4565 17.7564 16.111 17.8752 16.7948C17.9922 17.4677 18.7153 19.1743 18.7153 19.1743L18.9509 19.167C18.9509 19.167 18.4034 17.4298 18.8826 17.5237C19.1403 17.5742 19.3087 18.911 19.2773 19.0136L19.4344 18.9899C19.4344 18.9899 19.6896 17.5463 19.2363 16.9075C18.8278 16.3317 19.0852 15.4694 19.0832 14.7209C19.3008 14.3389 19.6062 14.376 20.1374 14.3281C21.0101 14.2493 21.9622 13.4096 22.0415 13.4358C22.1208 13.4621 23.496 14.2231 24.2364 13.7508C24.2364 13.7508 26.4073 13.508 26.0635 15.135C25.7197 16.762 26.0635 17.4968 26.0635 17.8117C26.0635 18.0177 25.8739 18.658 25.909 19.0728H26.196C26.3379 18.5274 26.6063 17.566 26.7752 17.3983C27.0133 17.1622 27.0925 18.3693 26.7752 19.0778C26.6823 19.2852 26.5532 19.399 26.4778 19.49L26.8505 19.5125C27.0536 19.0137 27.3412 18.28 27.5157 17.7133C27.8066 16.7685 27.8595 16.4012 27.886 15.2465C27.9124 14.0919 27.9653 13.5933 27.4893 13.0947Z" fill="#3A556A"/>
<path d="M6.2666 26.8902H10.6504V32.7682H6.2666V26.8902Z" fill="#E69871"/>
<path d="M15.7467 34.1816C15.4097 33.8161 15.0132 33.508 14.5733 33.2705L11.7498 31.7457L11.2883 31.4962H5.62925L5.17447 31.7417L2.34294 33.2705C1.90304 33.508 1.50647 33.8161 1.17079 34.1816C0.416878 34.9994 0 36.0639 0 37.1685V42.418C0 43.2917 0.71863 44 1.60509 44H15.3124C16.1989 44 16.9175 43.2917 16.9175 42.418V37.1685C16.9175 36.0639 16.5007 34.9994 15.7467 34.1816Z" fill="#D5D6DB"/>
<path d="M12.1575 25.9436C12.1919 25.4736 12.0344 25.0795 11.8056 25.0632C11.5768 25.0469 11.3634 25.4147 11.329 25.8846C11.2945 26.3546 11.4521 26.7488 11.6809 26.7651C11.9097 26.7813 12.1231 26.4136 12.1575 25.9436Z" fill="#FCD462"/>
<path d="M5.22353 26.7165C5.45232 26.7002 5.60988 26.306 5.57545 25.8361C5.54101 25.3661 5.32763 24.9983 5.09883 25.0146C4.87004 25.0309 4.71248 25.4251 4.74692 25.895C4.78135 26.365 4.99474 26.7327 5.22353 26.7165Z" fill="#FCD462"/>
<path d="M11.6742 26.7856L11.545 23.0271L11.0929 21.8152L8.45035 21.1127L5.80785 21.8152L4.85156 23.3526L5.22649 26.7856C5.22649 26.7856 6.15109 27.5352 6.4956 28.2026C6.62479 28.4529 5.67563 28.8158 5.80672 28.9906C6.02519 29.2819 6.25733 29.5052 6.53993 29.7832C6.9921 30.228 7.58317 30.3659 8.45035 30.3935C9.31754 30.3659 9.59124 30.3278 10.0434 29.8831C10.4956 29.4383 10.7504 29.6567 11.0949 28.9893C11.4395 28.3219 11.6742 26.7856 11.6742 26.7856Z" fill="#E69871"/>
<path d="M6.26544 30.3935H10.6492L11.2867 31.4969H5.62793L6.26544 30.3935Z" fill="#EBF0F3"/>
<path d="M11.8227 21.7825C11.0958 20.4093 10.1041 19.8024 9.04008 20.076C7.97608 20.3496 6.97657 19.0659 5.70448 20.5884C5.03034 21.3952 4.87671 21.6467 4.8797 21.7067C4.60946 21.8205 4.01146 22.2078 4.1295 23.3944C4.28094 24.9169 4.94728 25.6035 4.94728 26.0513C4.94728 26.2132 4.95916 26.3595 4.97434 26.4804C4.99053 26.6092 5.2725 27.8413 5.4544 28.6299C5.54343 29.0159 5.89119 29.288 6.29282 29.288H10.5712C10.9949 29.288 11.3551 28.9863 11.4207 28.5737C11.601 27.4395 11.9551 25.3383 12.1255 25.1856C12.4587 24.8871 12.5496 23.1556 11.8227 21.7825Z" fill="#3A556A"/>
<path d="M38.5537 32.7681H34.1699V26.89H38.5537V32.7681Z" fill="#E69871"/>
<path d="M29.0731 34.1816C29.4101 33.8161 29.8067 33.508 30.2466 33.2705L33.07 31.7457L33.5316 31.4962H39.1906L39.6454 31.7417L42.4769 33.2705C42.9168 33.508 43.3134 33.8161 43.6491 34.1816C44.403 34.9994 44.8199 36.0639 44.8199 37.1685V42.418C44.8199 43.2917 44.1012 44 43.2148 44H29.5074C28.621 44 27.9023 43.2917 27.9023 42.418V37.1685C27.9023 36.0639 28.3192 34.9994 29.0731 34.1816Z" fill="#D5D6DB"/>
<path d="M33.1327 26.7039C33.3615 26.6876 33.519 26.2934 33.4846 25.8235C33.4502 25.3535 33.2368 24.9858 33.008 25.0021C32.7792 25.0183 32.6217 25.4125 32.6561 25.8825C32.6905 26.3524 32.9039 26.7202 33.1327 26.7039Z" fill="#FCD462"/>
<path d="M40.0901 25.9555C40.1245 25.4856 39.967 25.0914 39.7382 25.0751C39.5094 25.0588 39.296 25.4266 39.2616 25.8966C39.2271 26.3665 39.3847 26.7607 39.6135 26.777C39.8423 26.7933 40.0557 26.4255 40.0901 25.9555Z" fill="#FCD462"/>
<path d="M33.7973 26.7743L33.2754 23.0271L33.7276 21.8152L36.3701 21.1127L39.0126 21.8152L39.9688 23.3526L39.5939 26.7856C39.5939 26.7856 38.5735 27.4335 38.229 28.1009C38.0672 28.4143 39.0813 28.9131 38.9134 29.1186C38.7238 29.3508 38.5203 29.5473 38.2805 29.7832C37.8283 30.228 37.2372 30.3659 36.3701 30.3935C35.5029 30.3659 35.2292 30.3278 34.777 29.8831C34.3248 29.4383 34.07 29.6567 33.7255 28.9893C33.381 28.3219 33.7973 26.7743 33.7973 26.7743Z" fill="#E69871"/>
<path d="M38.5535 30.3935H34.1697L33.5322 31.4969H39.191L38.5535 30.3935Z" fill="#EBF0F3"/>
<path d="M32.6925 25.1856C32.863 25.3383 33.217 27.4395 33.3974 28.5737C33.463 28.9863 33.8231 29.288 34.2468 29.288H38.5253C38.9269 29.288 39.2746 29.0159 39.3637 28.6299C39.5456 27.8413 39.8275 26.6092 39.8437 26.4804C39.8589 26.3595 39.8708 26.2132 39.8708 26.0513C39.8708 25.6035 40.5371 24.9169 40.6886 23.3944C40.8066 22.2078 40.2086 21.8205 39.9384 21.7067C39.9414 21.6467 39.7877 21.3952 39.1136 20.5884C37.8415 19.0659 36.842 20.3496 35.778 20.076C34.714 19.8024 33.7223 20.4093 32.9954 21.7825C32.2685 23.1556 32.3593 24.8871 32.6925 25.1856Z" fill="#3A556A"/>
<path d="M47.9997 10.3702H37.0166V17.0128H38.6521V18.6835L40.3472 17.0128H47.9997V10.3702Z" fill="#44C4A1"/>
<path d="M40.0948 14.4422C40.5155 14.4422 40.8565 14.106 40.8565 13.6914C40.8565 13.2767 40.5155 12.9406 40.0948 12.9406C39.6741 12.9406 39.333 13.2767 39.333 13.6914C39.333 14.106 39.6741 14.4422 40.0948 14.4422Z" fill="#3A556A"/>
<path d="M42.5079 14.4422C42.9286 14.4422 43.2696 14.106 43.2696 13.6914C43.2696 13.2767 42.9286 12.9406 42.5079 12.9406C42.0871 12.9406 41.7461 13.2767 41.7461 13.6914C41.7461 14.106 42.0871 14.4422 42.5079 14.4422Z" fill="#3A556A"/>
<path d="M44.921 14.4422C45.3417 14.4422 45.6827 14.106 45.6827 13.6914C45.6827 13.2767 45.3417 12.9406 44.921 12.9406C44.5002 12.9406 44.1592 13.2767 44.1592 13.6914C44.1592 14.106 44.5002 14.4422 44.921 14.4422Z" fill="#3A556A"/>
<path d="M32.0691 0H21.0859V6.64254H22.7214V8.31324L24.4166 6.64254H32.0691V0Z" fill="#E56353"/>
<path d="M24.1651 4.07222C24.5858 4.07222 24.9269 3.73608 24.9269 3.32142C24.9269 2.90676 24.5858 2.57062 24.1651 2.57062C23.7444 2.57062 23.4033 2.90676 23.4033 3.32142C23.4033 3.73608 23.7444 4.07222 24.1651 4.07222Z" fill="#3A556A"/>
<path d="M26.5772 4.07222C26.9979 4.07222 27.339 3.73608 27.339 3.32142C27.339 2.90676 26.9979 2.57062 26.5772 2.57062C26.1565 2.57062 25.8154 2.90676 25.8154 3.32142C25.8154 3.73608 26.1565 4.07222 26.5772 4.07222Z" fill="#3A556A"/>
<path d="M28.9903 4.07222C29.411 4.07222 29.7521 3.73608 29.7521 3.32142C29.7521 2.90676 29.411 2.57062 28.9903 2.57062C28.5696 2.57062 28.2285 2.90676 28.2285 3.32142C28.2285 3.73608 28.5696 4.07222 28.9903 4.07222Z" fill="#3A556A"/>
<path d="M0.137695 9.53487H11.1208V16.1774H9.4853V17.8481L7.79019 16.1774H0.137695V9.53487Z" fill="#27A2DB"/>
<path d="M8.04107 13.6071C8.46179 13.6071 8.80285 13.271 8.80285 12.8563C8.80285 12.4416 8.46179 12.1055 8.04107 12.1055C7.62035 12.1055 7.2793 12.4416 7.2793 12.8563C7.2793 13.271 7.62035 13.6071 8.04107 13.6071Z" fill="#3A556A"/>
<path d="M5.62994 13.6071C6.05066 13.6071 6.39171 13.271 6.39171 12.8563C6.39171 12.4416 6.05066 12.1055 5.62994 12.1055C5.20922 12.1055 4.86816 12.4416 4.86816 12.8563C4.86816 13.271 5.20922 13.6071 5.62994 13.6071Z" fill="#3A556A"/>
<path d="M3.21685 13.6071C3.63757 13.6071 3.97863 13.271 3.97863 12.8563C3.97863 12.4416 3.63757 12.1055 3.21685 12.1055C2.79614 12.1055 2.45508 12.4416 2.45508 12.8563C2.45508 13.271 2.79614 13.6071 3.21685 13.6071Z" fill="#3A556A"/>
</svg>
