<svg width="44" height="44" viewBox="0 0 44 44" fill="none" xmlns="http://www.w3.org/2000/svg">
<path d="M28.712 0H42.1357V41.7627H28.712V0Z" fill="#CCCCCC"/>
<path d="M15.2882 0H28.7119V41.7627H15.2882V0Z" fill="#E6E6E6"/>
<path d="M1.86436 0H15.2881V41.7627H1.86436V0Z" fill="#CCCCCC"/>
<path d="M31.6947 2.98305H39.1523V4.47457H31.6947V2.98305Z" fill="#808080"/>
<path d="M31.6947 5.96609H39.1523V7.45762H31.6947V5.96609Z" fill="#808080"/>
<path d="M31.6947 8.94914H39.1523V10.4407H31.6947V8.94914Z" fill="#808080"/>
<path d="M31.6947 31.322H39.1523V32.8136H31.6947V31.322Z" fill="#808080"/>
<path d="M31.6947 34.3051H39.1523V35.7966H31.6947V34.3051Z" fill="#808080"/>
<path d="M31.6947 37.2881H39.1523V38.7797H31.6947V37.2881Z" fill="#808080"/>
<path d="M37.6608 17.1525H39.1523V18.6441H37.6608V17.1525Z" fill="#808080"/>
<path d="M37.6608 20.1356H39.1523V25.3559H37.6608V20.1356Z" fill="#808080"/>
<path d="M18.2709 2.98305H25.7285V4.47457H18.2709V2.98305Z" fill="#808080"/>
<path d="M18.2709 5.96609H25.7285V7.45762H18.2709V5.96609Z" fill="#808080"/>
<path d="M18.2709 8.94914H25.7285V10.4407H18.2709V8.94914Z" fill="#808080"/>
<path d="M18.2709 31.322H25.7285V32.8136H18.2709V31.322Z" fill="#808080"/>
<path d="M18.2709 34.3051H25.7285V35.7966H18.2709V34.3051Z" fill="#808080"/>
<path d="M18.2709 37.2881H25.7285V38.7797H18.2709V37.2881Z" fill="#808080"/>
<path d="M24.237 17.1525H25.7285V18.6441H24.237V17.1525Z" fill="#808080"/>
<path d="M24.237 20.1356H25.7285V25.3559H24.237V20.1356Z" fill="#808080"/>
<path d="M4.84706 2.98305H12.3047V4.47457H4.84706V2.98305Z" fill="#808080"/>
<path d="M4.84706 5.96609H12.3047V7.45762H4.84706V5.96609Z" fill="#808080"/>
<path d="M4.84706 8.94914H12.3047V10.4407H4.84706V8.94914Z" fill="#808080"/>
<path d="M4.84706 31.322H12.3047V32.8136H4.84706V31.322Z" fill="#808080"/>
<path d="M4.84706 34.3051H12.3047V35.7966H4.84706V34.3051Z" fill="#808080"/>
<path d="M4.84706 37.2881H12.3047V38.7797H4.84706V37.2881Z" fill="#808080"/>
<path d="M10.8132 17.1525H12.3047V18.6441H10.8132V17.1525Z" fill="#808080"/>
<path d="M10.8132 20.1356H12.3047V25.3559H10.8132V20.1356Z" fill="#808080"/>
<path d="M39.153 41.7627H40.6445V44H39.153V41.7627Z" fill="#666666"/>
<path d="M30.2038 41.7627H31.6953V44H30.2038V41.7627Z" fill="#666666"/>
<path d="M25.7292 41.7627H27.2207V44H25.7292V41.7627Z" fill="#666666"/>
<path d="M16.78 41.7627H18.2715V44H16.78V41.7627Z" fill="#666666"/>
<path d="M12.3053 41.7627H13.7969V44H12.3053V41.7627Z" fill="#666666"/>
<path d="M3.35613 41.7627H4.84766V44H3.35613V41.7627Z" fill="#666666"/>
</svg>
