<svg width="44" height="40" viewBox="0 0 44 40" fill="none" xmlns="http://www.w3.org/2000/svg">
<g clip-path="url(#workspace-icon)">
<path d="M1.83301 18.2811H3.99652V39.8046H1.83301V18.2811Z" fill="#F6B863"/>
<path d="M10.9629 17.0255L11.9658 13.3992H16.0299L17.0333 17.0255H10.9629Z" fill="#62667C"/>
<path d="M17.5816 16.3284H10.4133C10.1602 16.3284 9.95508 16.5336 9.95508 16.7867C9.95508 17.0398 10.1602 17.2449 10.4133 17.2449H17.5816C17.8347 17.2449 18.0398 17.0398 18.0398 16.7867C18.0398 16.5336 17.8347 16.3284 17.5816 16.3284Z" fill="#575B6D"/>
<path d="M24.6035 37.9341L25.0284 39.8041H27.625L28.05 37.9341H24.6035Z" fill="#F6B863"/>
<path d="M37.6562 37.9341L38.0813 39.8041H40.6784L41.1033 37.9341H37.6562Z" fill="#F6B863"/>
<path d="M23.54 19.6741H42.1666V38.5576H23.54V19.6741Z" fill="#F6B863"/>
<path d="M0 16.9799H44V19.8947H0V16.9799Z" fill="#F6B863"/>
<path d="M25.3086 22.1751H40.3979V27.9283H25.3086V22.1751Z" fill="#EAA14E"/>
<path d="M35.066 25.8104H30.6408C30.2532 25.8101 29.939 25.4961 29.9385 25.1086V24.2785H30.599V25.151H35.0672L35.1091 24.279H35.7691V25.1086C35.7684 25.4964 35.4538 25.8104 35.066 25.8104Z" fill="#575B6D"/>
<path d="M25.3086 30.3038H40.3979V36.057H25.3086V30.3038Z" fill="#EAA14E"/>
<path d="M35.066 33.9397H30.6408C30.2532 33.9395 29.939 33.6254 29.9385 33.2379V32.4078H30.599V33.2798H35.0672L35.1091 32.4078H35.7691V33.2374C35.7687 33.6253 35.4541 33.9397 35.066 33.9397Z" fill="#575B6D"/>
<path d="M4.18841 0.195496H23.807C24.2379 0.195496 24.5872 0.544761 24.5872 0.975698V13.4996C24.5872 13.9305 24.2379 14.2798 23.807 14.2798H4.18841C3.75756 14.2798 3.4082 13.9306 3.4082 13.4996V0.975698C3.4082 0.544761 3.75747 0.195496 4.18841 0.195496Z" fill="#575B6D"/>
<path d="M4.28809 1.07495H23.7077V11.7084H4.28809V1.07495Z" fill="#69B0EE"/>
<path d="M13.9969 13.5088C14.2924 13.5088 14.5319 13.2692 14.5319 12.9738C14.5319 12.6783 14.2924 12.4388 13.9969 12.4388C13.7014 12.4388 13.4619 12.6783 13.4619 12.9738C13.4619 13.2692 13.7014 13.5088 13.9969 13.5088Z" fill="#62667C"/>
<path d="M3.4082 33.5598H25.1239V35.1733H3.4082V33.5598Z" fill="#F6B863"/>
<path d="M31.1885 15.7951H40.5202V16.9976H31.1885V15.7951Z" fill="#DBD8DD"/>
<path d="M31.1885 14.5926H40.5202V15.7951H31.1885V14.5926Z" fill="#BBBBCD"/>
<path d="M31.1885 13.3901H40.5202V14.5926H31.1885V13.3901Z" fill="#DBD8DD"/>
<path d="M31.1885 10.9851H40.5202V12.1876H31.1885V10.9851Z" fill="#DBD8DD"/>
<path d="M31.1885 12.1876H40.5202V13.3901H31.1885V12.1876Z" fill="#BBBBCD"/>
<path d="M29.365 16.9949H25.5928C25.5934 15.9532 26.4384 15.1094 27.4801 15.11C28.5208 15.1107 29.3643 15.9542 29.365 16.9949Z" fill="#575B6D"/>
<path d="M1.83203 19.8925H3.99446V20.896H1.83203V19.8925Z" fill="#EAA14E"/>
<path d="M23.5059 19.8925H42.1667V20.896H23.5059V19.8925Z" fill="#EAA14E"/>
</g>
<defs>
<clipPath id="workspace-icon">
<rect width="44" height="39.6091" fill="white" transform="translate(0 0.195496)"/>
</clipPath>
</defs>
</svg>
