<svg width="1440" height="578" viewBox="0 0 1440 578" fill="none" xmlns="http://www.w3.org/2000/svg">
<path d="M1114.89 590.329V556.746H678.395V590.329H673V614.311H1120.29V590.329H1114.89Z" fill="#F0F8FE"/>
<path d="M784.557 378.669V551.352H1013.6V378.669H784.557ZM823.618 519.296H812.823V501.911H823.618V519.296ZM823.618 494.371H812.823V476.985H823.618V494.371ZM823.618 469.439H812.823V452.054H823.618V469.439ZM823.618 444.514H812.823V427.128H823.618V444.514ZM823.618 419.589H812.823V402.203H823.618V419.589ZM838.157 519.296H827.362V501.911H838.157V519.296ZM838.157 494.371H827.362V476.985H838.157V494.371ZM838.157 469.439H827.362V452.054H838.157V469.439ZM838.157 444.514H827.362V427.128H838.157V444.514ZM838.157 419.589H827.362V402.203H838.157V419.589ZM852.696 519.296H841.901V501.911H852.696V519.296ZM852.696 494.371H841.901V476.985H852.696V494.371ZM852.696 469.439H841.901V452.054H852.696V469.439ZM852.696 444.514H841.901V427.128H852.696V444.514ZM852.696 419.589H841.901V402.203H852.696V419.589ZM867.236 519.296H856.44V501.911H867.236V519.296ZM867.236 494.371H856.44V476.985H867.236V494.371ZM867.236 469.439H856.44V452.054H867.236V469.439ZM867.236 444.514H856.44V427.128H867.236V444.514ZM867.236 419.589H856.44V402.203H867.236V419.589ZM881.781 519.296H870.986V501.911H881.781V519.296ZM881.781 494.371H870.986V476.985H881.781V494.371ZM881.781 469.439H870.986V452.054H881.781V469.439ZM881.781 444.514H870.986V427.128H881.781V444.514ZM881.781 419.589H870.986V402.203H881.781V419.589ZM896.32 519.296H885.525V501.911H896.32V519.296ZM896.32 494.371H885.525V476.985H896.32V494.371ZM896.32 469.439H885.525V452.054H896.32V469.439ZM896.32 444.514H885.525V427.128H896.32V444.514ZM896.32 419.589H885.525V402.203H896.32V419.589ZM912.627 519.296H901.832V501.911H912.627V519.296ZM912.627 494.371H901.832V476.985H912.627V494.371ZM912.627 469.439H901.832V452.054H912.627V469.439ZM912.627 444.514H901.832V427.128H912.627V444.514ZM912.627 419.589H901.832V402.203H912.627V419.589ZM927.167 519.296H916.371V501.911H927.167V519.296ZM927.167 494.371H916.371V476.985H927.167V494.371ZM927.167 469.439H916.371V452.054H927.167V469.439ZM927.167 444.514H916.371V427.128H927.167V444.514ZM927.167 419.589H916.371V402.203H927.167V419.589ZM941.712 519.296H930.917V501.911H941.712V519.296ZM941.712 494.371H930.917V476.985H941.712V494.371ZM941.712 469.439H930.917V452.054H941.712V469.439ZM941.712 444.514H930.917V427.128H941.712V444.514ZM941.712 419.589H930.917V402.203H941.712V419.589ZM956.251 519.296H945.456V501.911H956.251V519.296ZM956.251 494.371H945.456V476.985H956.251V494.371ZM956.251 469.439H945.456V452.054H956.251V469.439ZM956.251 444.514H945.456V427.128H956.251V444.514ZM956.251 419.589H945.456V402.203H956.251V419.589ZM970.791 519.296H959.995V501.911H970.791V519.296ZM970.791 494.371H959.995V476.985H970.791V494.371ZM970.791 469.439H959.995V452.054H970.791V469.439ZM970.791 444.514H959.995V427.128H970.791V444.514ZM970.791 419.589H959.995V402.203H970.791V419.589ZM985.33 519.296H974.534V501.911H985.33V519.296ZM985.33 494.371H974.534V476.985H985.33V494.371ZM985.33 469.439H974.534V452.054H985.33V469.439ZM985.33 444.514H974.534V427.128H985.33V444.514ZM985.33 419.589H974.534V402.203H985.33V419.589Z" fill="#F0F8FE"/>
<path d="M1021.35 140.634H945.207V374.477H1021.35V551.352H1095.7V140.634H1021.35ZM1009.93 367.659H999.133V350.273H1009.93V367.659ZM1009.93 342.727H999.133V325.341H1009.93V342.727ZM1009.93 317.802H999.133V300.416H1009.93V317.802ZM1009.93 292.876H999.133V275.491H1009.93V292.876ZM1009.93 267.945H999.133V250.559H1009.93V267.945ZM1009.93 243.019H999.133V225.634H1009.93V243.019ZM1009.93 218.094H999.133V200.708H1009.93V218.094ZM1009.93 193.169H999.133V175.783H1009.93V193.169ZM1009.93 168.237H999.133V150.851H1009.93V168.237ZM1024.47 367.659H1013.67V350.273H1024.47V367.659ZM1024.47 342.727H1013.67V325.341H1024.47V342.727ZM1024.47 317.802H1013.67V300.416H1024.47V317.802ZM1024.47 292.876H1013.67V275.491H1024.47V292.876ZM1024.47 267.945H1013.67V250.559H1024.47V267.945ZM1024.47 243.019H1013.67V225.634H1024.47V243.019ZM1024.47 218.094H1013.67V200.708H1024.47V218.094ZM1024.47 193.169H1013.67V175.783H1024.47V193.169ZM1024.47 168.237H1013.67V150.851H1024.47V168.237ZM1039.01 542.148H1028.22V524.756H1039.01V542.148ZM1039.01 517.217H1028.22V499.831H1039.01V517.217ZM1039.01 492.291H1028.22V474.905H1039.01V492.291ZM1039.01 467.366H1028.22V449.98H1039.01V467.366ZM1039.01 442.434H1028.22V425.048H1039.01V442.434ZM1039.01 417.509H1028.22V400.123H1039.01V417.509ZM1039.01 392.584H1028.22V375.198H1039.01V392.584ZM1039.01 367.659H1028.22V350.273H1039.01V367.659ZM1039.01 342.727H1028.22V325.341H1039.01V342.727ZM1039.01 317.802H1028.22V300.416H1039.01V317.802ZM1039.01 292.876H1028.22V275.491H1039.01V292.876ZM1039.01 267.945H1028.22V250.559H1039.01V267.945ZM1039.01 243.019H1028.22V225.634H1039.01V243.019ZM1039.01 218.094H1028.22V200.708H1039.01V218.094ZM1039.01 193.169H1028.22V175.783H1039.01V193.169ZM1039.01 168.237H1028.22V150.851H1039.01V168.237ZM1053.55 542.148H1042.76V524.756H1053.55V542.148ZM1053.55 517.217H1042.76V499.831H1053.55V517.217ZM1053.55 492.291H1042.76V474.905H1053.55V492.291ZM1053.55 467.366H1042.76V449.98H1053.55V467.366ZM1053.55 442.434H1042.76V425.048H1053.55V442.434ZM1053.55 417.509H1042.76V400.123H1053.55V417.509ZM1053.55 392.584H1042.76V375.198H1053.55V392.584ZM1053.55 367.659H1042.76V350.273H1053.55V367.659ZM1053.55 342.727H1042.76V325.341H1053.55V342.727ZM1053.55 317.802H1042.76V300.416H1053.55V317.802ZM1053.55 292.876H1042.76V275.491H1053.55V292.876ZM1053.55 267.945H1042.76V250.559H1053.55V267.945ZM1053.55 243.019H1042.76V225.634H1053.55V243.019ZM1053.55 218.094H1042.76V200.708H1053.55V218.094ZM1053.55 193.169H1042.76V175.783H1053.55V193.169ZM1053.55 168.237H1042.76V150.851H1053.55V168.237ZM1068.09 542.148H1057.3V524.756H1068.09V542.148ZM1068.09 517.217H1057.3V499.831H1068.09V517.217ZM1068.09 492.291H1057.3V474.905H1068.09V492.291ZM1068.09 467.366H1057.3V449.98H1068.09V467.366ZM1068.09 442.434H1057.3V425.048H1068.09V442.434ZM1068.09 417.509H1057.3V400.123H1068.09V417.509ZM1068.09 392.584H1057.3V375.198H1068.09V392.584ZM1068.09 367.659H1057.3V350.273H1068.09V367.659ZM1068.09 342.727H1057.3V325.341H1068.09V342.727ZM1068.09 317.802H1057.3V300.416H1068.09V317.802ZM1068.09 292.876H1057.3V275.491H1068.09V292.876ZM1068.09 267.945H1057.3V250.559H1068.09V267.945ZM1068.09 243.019H1057.3V225.634H1068.09V243.019ZM1068.09 218.094H1057.3V200.708H1068.09V218.094ZM1068.09 193.169H1057.3V175.783H1068.09V193.169ZM1068.09 168.237H1057.3V150.851H1068.09V168.237ZM1082.63 542.148H1071.84V524.756H1082.63V542.148ZM1082.63 517.217H1071.84V499.831H1082.63V517.217ZM1082.63 492.291H1071.84V474.905H1082.63V492.291ZM1082.63 467.366H1071.84V449.98H1082.63V467.366ZM1082.63 442.434H1071.84V425.048H1082.63V442.434ZM1082.63 417.509H1071.84V400.123H1082.63V417.509ZM1082.63 392.584H1071.84V375.198H1082.63V392.584ZM1082.63 367.659H1071.84V350.273H1082.63V367.659ZM1082.63 342.727H1071.84V325.341H1082.63V342.727ZM1082.63 317.802H1071.84V300.416H1082.63V317.802ZM1082.63 292.876H1071.84V275.491H1082.63V292.876ZM1082.63 267.945H1071.84V250.559H1082.63V267.945ZM1082.63 243.019H1071.84V225.634H1082.63V243.019ZM1082.63 218.094H1071.84V200.708H1082.63V218.094ZM1082.63 193.169H1071.84V175.783H1082.63V193.169ZM1082.63 168.237H1071.84V150.851H1082.63V168.237Z" fill="#F0F8FE"/>
<path d="M697.582 240.166V551.351H776.251V374.476H856.824V240.173L697.582 240.166ZM726.037 542.148H715.241V524.756H726.037V542.148ZM726.037 517.216H715.241V499.83H726.037V517.216ZM726.037 492.291H715.241V474.905H726.037V492.291ZM726.037 467.366H715.241V449.98H726.037V467.366ZM726.037 442.434H715.241V425.048H726.037V442.434ZM726.037 417.509H715.241V400.123H726.037V417.509ZM726.037 392.584H715.241V375.198H726.037V392.584ZM726.037 367.658H715.241V350.273H726.037V367.658ZM726.037 342.727H715.241V325.341H726.037V342.727ZM726.037 317.801H715.241V300.416H726.037V317.801ZM726.037 292.876H715.241V275.49H726.037V292.876ZM726.037 267.944H715.241V250.559H726.037V267.944ZM740.576 542.148H729.78V524.756H740.576V542.148ZM740.576 517.216H729.78V499.83H740.576V517.216ZM740.576 492.291H729.78V474.905H740.576V492.291ZM740.576 467.366H729.78V449.98H740.576V467.366ZM740.576 442.434H729.78V425.048H740.576V442.434ZM740.576 417.509H729.78V400.123H740.576V417.509ZM740.576 392.584H729.78V375.198H740.576V392.584ZM740.576 367.658H729.78V350.273H740.576V367.658ZM740.576 342.727H729.78V325.341H740.576V342.727ZM740.576 317.801H729.78V300.416H740.576V317.801ZM740.576 292.876H729.78V275.49H740.576V292.876ZM740.576 267.944H729.78V250.559H740.576V267.944ZM755.115 542.148H744.319V524.756H755.115V542.148ZM755.115 517.216H744.319V499.83H755.115V517.216ZM755.115 492.291H744.319V474.905H755.115V492.291ZM755.115 467.366H744.319V449.98H755.115V467.366ZM755.115 442.434H744.319V425.048H755.115V442.434ZM755.115 417.509H744.319V400.123H755.115V417.509ZM755.115 392.584H744.319V375.198H755.115V392.584ZM755.115 367.658H744.319V350.273H755.115V367.658ZM755.115 342.727H744.319V325.341H755.115V342.727ZM755.115 317.801H744.319V300.416H755.115V317.801ZM755.115 292.876H744.319V275.49H755.115V292.876ZM755.115 267.944H744.319V250.559H755.115V267.944ZM769.661 542.148H758.865V524.756H769.661V542.148ZM769.661 517.216H758.865V499.83H769.661V517.216ZM769.661 492.291H758.865V474.905H769.661V492.291ZM769.661 467.366H758.865V449.98H769.661V467.366ZM769.661 442.434H758.865V425.048H769.661V442.434ZM769.661 417.509H758.865V400.123H769.661V417.509ZM769.661 392.584H758.865V375.198H769.661V392.584ZM769.661 367.658H758.865V350.273H769.661V367.658ZM769.661 342.727H758.865V325.341H769.661V342.727ZM769.661 317.801H758.865V300.416H769.661V317.801ZM769.661 292.876H758.865V275.49H769.661V292.876ZM769.661 267.944H758.865V250.559H769.661V267.944ZM784.2 367.658H773.404V350.273H784.2V367.658ZM784.2 342.727H773.404V325.341H784.2V342.727ZM784.2 317.801H773.404V300.416H784.2V317.801ZM784.2 292.876H773.404V275.49H784.2V292.876ZM784.2 267.944H773.404V250.559H784.2V267.944ZM798.739 367.658H787.943V350.273H798.739V367.658ZM798.739 342.727H787.943V325.341H798.739V342.727ZM798.739 317.801H787.943V300.416H798.739V317.801ZM798.739 292.876H787.943V275.49H798.739V292.876ZM798.739 267.944H787.943V250.559H798.739V267.944Z" fill="#F0F8FE"/>
<path d="M856.824 212.589L697.582 202.996V234.323H856.824V212.589Z" fill="#F0F8FE"/>
<path d="M945.207 113.057L1095.7 103.464V134.792H945.207V113.057Z" fill="#F0F8FE"/>
<path d="M957.662 0H955.166V97.7316H957.662V0Z" fill="#F0F8FE"/>
<path d="M963.908 99.3826C963.908 98.4727 960.554 97.7383 956.414 97.7383C952.274 97.7383 948.92 98.4727 948.92 99.3826V108.449L963.908 107.617V99.3826Z" fill="#F0F8FE"/>
<path d="M846.867 93.6436H844.371V191.375H846.867V93.6436Z" fill="#F0F8FE"/>
<path d="M853.11 194.008C853.11 192.558 849.756 191.382 845.616 191.382C841.476 191.382 838.122 192.558 838.122 194.008V207.149L853.11 207.942V194.008C853.103 194.008 853.11 194.008 853.11 194.008Z" fill="#F0F8FE"/>
<path d="M1548.89 590.329V556.746H1112.39V590.329H1107V614.311H1554.29V590.329H1548.89Z" fill="#F0F8FE"/>
<path d="M1218.56 378.669V551.352H1447.6V378.669H1218.56ZM1257.62 519.296H1246.82V501.911H1257.62V519.296ZM1257.62 494.371H1246.82V476.985H1257.62V494.371ZM1257.62 469.439H1246.82V452.054H1257.62V469.439ZM1257.62 444.514H1246.82V427.128H1257.62V444.514ZM1257.62 419.589H1246.82V402.203H1257.62V419.589ZM1272.16 519.296H1261.36V501.911H1272.16V519.296ZM1272.16 494.371H1261.36V476.985H1272.16V494.371ZM1272.16 469.439H1261.36V452.054H1272.16V469.439ZM1272.16 444.514H1261.36V427.128H1272.16V444.514ZM1272.16 419.589H1261.36V402.203H1272.16V419.589ZM1286.7 519.296H1275.9V501.911H1286.7V519.296ZM1286.7 494.371H1275.9V476.985H1286.7V494.371ZM1286.7 469.439H1275.9V452.054H1286.7V469.439ZM1286.7 444.514H1275.9V427.128H1286.7V444.514ZM1286.7 419.589H1275.9V402.203H1286.7V419.589ZM1301.24 519.296H1290.44V501.911H1301.24V519.296ZM1301.24 494.371H1290.44V476.985H1301.24V494.371ZM1301.24 469.439H1290.44V452.054H1301.24V469.439ZM1301.24 444.514H1290.44V427.128H1301.24V444.514ZM1301.24 419.589H1290.44V402.203H1301.24V419.589ZM1315.78 519.296H1304.99V501.911H1315.78V519.296ZM1315.78 494.371H1304.99V476.985H1315.78V494.371ZM1315.78 469.439H1304.99V452.054H1315.78V469.439ZM1315.78 444.514H1304.99V427.128H1315.78V444.514ZM1315.78 419.589H1304.99V402.203H1315.78V419.589ZM1330.32 519.296H1319.52V501.911H1330.32V519.296ZM1330.32 494.371H1319.52V476.985H1330.32V494.371ZM1330.32 469.439H1319.52V452.054H1330.32V469.439ZM1330.32 444.514H1319.52V427.128H1330.32V444.514ZM1330.32 419.589H1319.52V402.203H1330.32V419.589ZM1346.63 519.296H1335.83V501.911H1346.63V519.296ZM1346.63 494.371H1335.83V476.985H1346.63V494.371ZM1346.63 469.439H1335.83V452.054H1346.63V469.439ZM1346.63 444.514H1335.83V427.128H1346.63V444.514ZM1346.63 419.589H1335.83V402.203H1346.63V419.589ZM1361.17 519.296H1350.37V501.911H1361.17V519.296ZM1361.17 494.371H1350.37V476.985H1361.17V494.371ZM1361.17 469.439H1350.37V452.054H1361.17V469.439ZM1361.17 444.514H1350.37V427.128H1361.17V444.514ZM1361.17 419.589H1350.37V402.203H1361.17V419.589ZM1375.71 519.296H1364.92V501.911H1375.71V519.296ZM1375.71 494.371H1364.92V476.985H1375.71V494.371ZM1375.71 469.439H1364.92V452.054H1375.71V469.439ZM1375.71 444.514H1364.92V427.128H1375.71V444.514ZM1375.71 419.589H1364.92V402.203H1375.71V419.589ZM1390.25 519.296H1379.46V501.911H1390.25V519.296ZM1390.25 494.371H1379.46V476.985H1390.25V494.371ZM1390.25 469.439H1379.46V452.054H1390.25V469.439ZM1390.25 444.514H1379.46V427.128H1390.25V444.514ZM1390.25 419.589H1379.46V402.203H1390.25V419.589ZM1404.79 519.296H1394V501.911H1404.79V519.296ZM1404.79 494.371H1394V476.985H1404.79V494.371ZM1404.79 469.439H1394V452.054H1404.79V469.439ZM1404.79 444.514H1394V427.128H1404.79V444.514ZM1404.79 419.589H1394V402.203H1404.79V419.589ZM1419.33 519.296H1408.53V501.911H1419.33V519.296ZM1419.33 494.371H1408.53V476.985H1419.33V494.371ZM1419.33 469.439H1408.53V452.054H1419.33V469.439ZM1419.33 444.514H1408.53V427.128H1419.33V444.514ZM1419.33 419.589H1408.53V402.203H1419.33V419.589Z" fill="#F0F8FE"/>
<path d="M1455.35 140.634H1379.21V374.477H1455.35V551.352H1529.7V140.634H1455.35ZM1443.93 367.659H1433.13V350.273H1443.93V367.659ZM1443.93 342.727H1433.13V325.341H1443.93V342.727ZM1443.93 317.802H1433.13V300.416H1443.93V317.802ZM1443.93 292.876H1433.13V275.491H1443.93V292.876ZM1443.93 267.945H1433.13V250.559H1443.93V267.945ZM1443.93 243.019H1433.13V225.634H1443.93V243.019ZM1443.93 218.094H1433.13V200.708H1443.93V218.094ZM1443.93 193.169H1433.13V175.783H1443.93V193.169ZM1443.93 168.237H1433.13V150.851H1443.93V168.237ZM1458.47 367.659H1447.67V350.273H1458.47V367.659ZM1458.47 342.727H1447.67V325.341H1458.47V342.727ZM1458.47 317.802H1447.67V300.416H1458.47V317.802ZM1458.47 292.876H1447.67V275.491H1458.47V292.876ZM1458.47 267.945H1447.67V250.559H1458.47V267.945ZM1458.47 243.019H1447.67V225.634H1458.47V243.019ZM1458.47 218.094H1447.67V200.708H1458.47V218.094ZM1458.47 193.169H1447.67V175.783H1458.47V193.169ZM1458.47 168.237H1447.67V150.851H1458.47V168.237ZM1473.01 542.148H1462.22V524.756H1473.01V542.148ZM1473.01 517.217H1462.22V499.831H1473.01V517.217ZM1473.01 492.291H1462.22V474.905H1473.01V492.291ZM1473.01 467.366H1462.22V449.98H1473.01V467.366ZM1473.01 442.434H1462.22V425.048H1473.01V442.434ZM1473.01 417.509H1462.22V400.123H1473.01V417.509ZM1473.01 392.584H1462.22V375.198H1473.01V392.584ZM1473.01 367.659H1462.22V350.273H1473.01V367.659ZM1473.01 342.727H1462.22V325.341H1473.01V342.727ZM1473.01 317.802H1462.22V300.416H1473.01V317.802ZM1473.01 292.876H1462.22V275.491H1473.01V292.876ZM1473.01 267.945H1462.22V250.559H1473.01V267.945ZM1473.01 243.019H1462.22V225.634H1473.01V243.019ZM1473.01 218.094H1462.22V200.708H1473.01V218.094ZM1473.01 193.169H1462.22V175.783H1473.01V193.169ZM1473.01 168.237H1462.22V150.851H1473.01V168.237ZM1487.55 542.148H1476.76V524.756H1487.55V542.148ZM1487.55 517.217H1476.76V499.831H1487.55V517.217ZM1487.55 492.291H1476.76V474.905H1487.55V492.291ZM1487.55 467.366H1476.76V449.98H1487.55V467.366ZM1487.55 442.434H1476.76V425.048H1487.55V442.434ZM1487.55 417.509H1476.76V400.123H1487.55V417.509ZM1487.55 392.584H1476.76V375.198H1487.55V392.584ZM1487.55 367.659H1476.76V350.273H1487.55V367.659ZM1487.55 342.727H1476.76V325.341H1487.55V342.727ZM1487.55 317.802H1476.76V300.416H1487.55V317.802ZM1487.55 292.876H1476.76V275.491H1487.55V292.876ZM1487.55 267.945H1476.76V250.559H1487.55V267.945ZM1487.55 243.019H1476.76V225.634H1487.55V243.019ZM1487.55 218.094H1476.76V200.708H1487.55V218.094ZM1487.55 193.169H1476.76V175.783H1487.55V193.169ZM1487.55 168.237H1476.76V150.851H1487.55V168.237ZM1502.09 542.148H1491.3V524.756H1502.09V542.148ZM1502.09 517.217H1491.3V499.831H1502.09V517.217ZM1502.09 492.291H1491.3V474.905H1502.09V492.291ZM1502.09 467.366H1491.3V449.98H1502.09V467.366ZM1502.09 442.434H1491.3V425.048H1502.09V442.434ZM1502.09 417.509H1491.3V400.123H1502.09V417.509ZM1502.09 392.584H1491.3V375.198H1502.09V392.584ZM1502.09 367.659H1491.3V350.273H1502.09V367.659ZM1502.09 342.727H1491.3V325.341H1502.09V342.727ZM1502.09 317.802H1491.3V300.416H1502.09V317.802ZM1502.09 292.876H1491.3V275.491H1502.09V292.876ZM1502.09 267.945H1491.3V250.559H1502.09V267.945ZM1502.09 243.019H1491.3V225.634H1502.09V243.019ZM1502.09 218.094H1491.3V200.708H1502.09V218.094ZM1502.09 193.169H1491.3V175.783H1502.09V193.169ZM1502.09 168.237H1491.3V150.851H1502.09V168.237ZM1516.63 542.148H1505.84V524.756H1516.63V542.148ZM1516.63 517.217H1505.84V499.831H1516.63V517.217ZM1516.63 492.291H1505.84V474.905H1516.63V492.291ZM1516.63 467.366H1505.84V449.98H1516.63V467.366ZM1516.63 442.434H1505.84V425.048H1516.63V442.434ZM1516.63 417.509H1505.84V400.123H1516.63V417.509ZM1516.63 392.584H1505.84V375.198H1516.63V392.584ZM1516.63 367.659H1505.84V350.273H1516.63V367.659ZM1516.63 342.727H1505.84V325.341H1516.63V342.727ZM1516.63 317.802H1505.84V300.416H1516.63V317.802ZM1516.63 292.876H1505.84V275.491H1516.63V292.876ZM1516.63 267.945H1505.84V250.559H1516.63V267.945ZM1516.63 243.019H1505.84V225.634H1516.63V243.019ZM1516.63 218.094H1505.84V200.708H1516.63V218.094ZM1516.63 193.169H1505.84V175.783H1516.63V193.169ZM1516.63 168.237H1505.84V150.851H1516.63V168.237Z" fill="#F0F8FE"/>
<path d="M1131.58 240.166V551.351H1210.25V374.476H1290.82V240.173L1131.58 240.166ZM1160.04 542.148H1149.24V524.756H1160.04V542.148ZM1160.04 517.216H1149.24V499.83H1160.04V517.216ZM1160.04 492.291H1149.24V474.905H1160.04V492.291ZM1160.04 467.366H1149.24V449.98H1160.04V467.366ZM1160.04 442.434H1149.24V425.048H1160.04V442.434ZM1160.04 417.509H1149.24V400.123H1160.04V417.509ZM1160.04 392.584H1149.24V375.198H1160.04V392.584ZM1160.04 367.658H1149.24V350.273H1160.04V367.658ZM1160.04 342.727H1149.24V325.341H1160.04V342.727ZM1160.04 317.801H1149.24V300.416H1160.04V317.801ZM1160.04 292.876H1149.24V275.49H1160.04V292.876ZM1160.04 267.944H1149.24V250.559H1160.04V267.944ZM1174.58 542.148H1163.78V524.756H1174.58V542.148ZM1174.58 517.216H1163.78V499.83H1174.58V517.216ZM1174.58 492.291H1163.78V474.905H1174.58V492.291ZM1174.58 467.366H1163.78V449.98H1174.58V467.366ZM1174.58 442.434H1163.78V425.048H1174.58V442.434ZM1174.58 417.509H1163.78V400.123H1174.58V417.509ZM1174.58 392.584H1163.78V375.198H1174.58V392.584ZM1174.58 367.658H1163.78V350.273H1174.58V367.658ZM1174.58 342.727H1163.78V325.341H1174.58V342.727ZM1174.58 317.801H1163.78V300.416H1174.58V317.801ZM1174.58 292.876H1163.78V275.49H1174.58V292.876ZM1174.58 267.944H1163.78V250.559H1174.58V267.944ZM1189.12 542.148H1178.32V524.756H1189.12V542.148ZM1189.12 517.216H1178.32V499.83H1189.12V517.216ZM1189.12 492.291H1178.32V474.905H1189.12V492.291ZM1189.12 467.366H1178.32V449.98H1189.12V467.366ZM1189.12 442.434H1178.32V425.048H1189.12V442.434ZM1189.12 417.509H1178.32V400.123H1189.12V417.509ZM1189.12 392.584H1178.32V375.198H1189.12V392.584ZM1189.12 367.658H1178.32V350.273H1189.12V367.658ZM1189.12 342.727H1178.32V325.341H1189.12V342.727ZM1189.12 317.801H1178.32V300.416H1189.12V317.801ZM1189.12 292.876H1178.32V275.49H1189.12V292.876ZM1189.12 267.944H1178.32V250.559H1189.12V267.944ZM1203.66 542.148H1192.87V524.756H1203.66V542.148ZM1203.66 517.216H1192.87V499.83H1203.66V517.216ZM1203.66 492.291H1192.87V474.905H1203.66V492.291ZM1203.66 467.366H1192.87V449.98H1203.66V467.366ZM1203.66 442.434H1192.87V425.048H1203.66V442.434ZM1203.66 417.509H1192.87V400.123H1203.66V417.509ZM1203.66 392.584H1192.87V375.198H1203.66V392.584ZM1203.66 367.658H1192.87V350.273H1203.66V367.658ZM1203.66 342.727H1192.87V325.341H1203.66V342.727ZM1203.66 317.801H1192.87V300.416H1203.66V317.801ZM1203.66 292.876H1192.87V275.49H1203.66V292.876ZM1203.66 267.944H1192.87V250.559H1203.66V267.944ZM1218.2 367.658H1207.4V350.273H1218.2V367.658ZM1218.2 342.727H1207.4V325.341H1218.2V342.727ZM1218.2 317.801H1207.4V300.416H1218.2V317.801ZM1218.2 292.876H1207.4V275.49H1218.2V292.876ZM1218.2 267.944H1207.4V250.559H1218.2V267.944ZM1232.74 367.658H1221.94V350.273H1232.74V367.658ZM1232.74 342.727H1221.94V325.341H1232.74V342.727ZM1232.74 317.801H1221.94V300.416H1232.74V317.801ZM1232.74 292.876H1221.94V275.49H1232.74V292.876ZM1232.74 267.944H1221.94V250.559H1232.74V267.944Z" fill="#F0F8FE"/>
<path d="M1290.82 212.589L1131.58 202.996V234.323H1290.82V212.589Z" fill="#F0F8FE"/>
<path d="M1379.21 113.057L1529.7 103.464V134.792H1379.21V113.057Z" fill="#F0F8FE"/>
<path d="M1391.66 0H1389.17V97.7316H1391.66V0Z" fill="#F0F8FE"/>
<path d="M1397.91 99.3826C1397.91 98.4727 1394.55 97.7383 1390.41 97.7383C1386.27 97.7383 1382.92 98.4727 1382.92 99.3826V108.449L1397.91 107.617V99.3826Z" fill="#F0F8FE"/>
<path d="M1280.87 93.6436H1278.37V191.375H1280.87V93.6436Z" fill="#F0F8FE"/>
<path d="M1287.11 194.008C1287.11 192.558 1283.76 191.382 1279.62 191.382C1275.48 191.382 1272.12 192.558 1272.12 194.008V207.149L1287.11 207.942V194.008C1287.1 194.008 1287.11 194.008 1287.11 194.008Z" fill="#F0F8FE"/>
<path d="M414.91 507.798H455.372V418.821H499.265V262.592L580.499 245.234L661.838 262.592V490.335H679V579H-140V308.432L-78.0081 296.582L-16.1203 308.432V359.885C-4.05475 359.885 7.90678 359.885 19.8683 359.885V410.09H42.6472V213.635L105.263 197.419L166.527 213.635V379.946H225.19V332.027L248.281 326.934V93.2666L268.98 85.8865V63.7463C268.98 53.3518 277.093 44.6205 287.39 43.685V23H290.823V43.685C301.12 44.6205 309.233 53.3518 309.233 63.7463V85.8865L329.932 93.2666V326.934L353.023 332.027V475.367H414.91V507.798ZM554.704 285.564L513.827 294.4V303.651L554.704 294.919V285.564ZM553.872 269.557L512.995 278.392V287.747L553.872 278.912V269.557ZM554.912 306.561L514.035 315.396V324.751L554.912 315.916V306.561ZM562.193 361.132L554.808 362.795V391.796L562.193 390.133V361.132ZM527.349 329.429L519.964 331.092V360.093L527.349 358.429V329.429ZM563.233 321.945L555.848 323.608V352.505L563.233 350.945V321.945ZM639.163 300.74L631.674 299.181V328.597L639.163 330.156V300.74ZM527.661 366.953L520.172 368.616V397.513L527.661 395.849V366.953ZM545.759 332.339L538.374 333.898V346.684L545.759 345.021V332.339ZM546.279 370.487L538.894 372.046V384.831L546.279 383.272V370.487ZM639.683 278.6L598.806 269.765V279.12L639.683 287.851V278.6ZM613.264 296.79L605.775 295.231V324.647L613.264 326.207V296.79ZM626.369 345.228L618.88 343.669V373.086L626.369 374.645V345.228ZM601.302 353.544L593.709 351.985V381.401L601.302 383.064V353.544ZM641.035 381.817L633.546 380.258V409.674L641.035 411.233V381.817ZM323.483 334.626L316.098 332.027V361.028L323.483 363.627V334.626ZM321.611 371.319L314.226 368.616V381.401L321.611 384V371.319ZM306.945 340.967L299.56 338.368V367.265L306.945 369.863V340.967ZM322.131 394.29L314.746 391.692V420.692L322.131 423.291V394.29ZM313.81 426.617L306.425 424.018V452.915L313.81 455.514V426.617ZM315.162 460.711L307.673 458.112V487.009L315.162 489.608V460.711ZM322.443 513.515L315.058 510.916V539.917L322.443 542.515V513.515ZM325.355 448.757L317.866 446.055V458.84L325.355 461.439V448.757ZM327.435 479.629L320.05 476.926V489.712L327.435 492.31V479.629ZM315.89 493.765L308.505 491.063V503.848L315.89 506.447V493.765ZM341.373 347.411L333.988 344.709V357.494L341.373 360.093V347.411ZM340.853 375.061L333.468 372.462V385.247L340.853 387.846V375.061ZM341.893 400.215L334.508 397.617V410.298L341.893 413V400.215ZM343.973 424.018L336.589 421.42V450.42L343.973 453.019V424.018ZM345.014 463.206L337.629 460.607V473.288L345.014 475.991V463.206ZM342.621 483.371L335.236 480.772V509.669L342.621 512.268V483.371ZM338.253 521.623L330.764 519.024V531.705L338.253 534.304V521.623ZM321.611 135.988L314.226 133.389V146.07L321.611 148.773V135.988ZM306.945 105.636L299.56 103.037V132.038L306.945 134.637V105.636ZM322.131 158.96L314.746 156.361V185.362L322.131 187.96V158.96ZM306.217 154.594L298.832 151.995V180.892L306.217 183.491V154.594ZM313.81 191.286L306.425 188.688V217.688L313.81 220.287V191.286ZM315.578 225.068V255.004L307.257 252.094V222.158L315.578 225.068ZM306.217 274.546L298.832 271.947V300.948L306.217 303.547V274.546ZM322.443 278.184L315.058 275.586V304.586L322.443 307.185V278.184ZM301.224 193.573L293.839 190.975V203.656L301.224 206.254V193.573ZM302.264 213.946L294.879 211.348V224.029L302.264 226.732V213.946ZM302.68 236.606V250.327L294.463 247.417V233.696L302.68 236.606ZM325.355 213.427L317.866 210.828V223.509L325.355 226.212V213.427ZM327.435 244.298L320.05 241.7V254.381L327.435 257.083V244.298ZM315.89 258.435L308.505 255.836V268.517L315.89 271.116V258.435ZM323.483 99.3993L316.098 96.8007V125.697L323.483 128.296V99.3993ZM265.443 133.389L258.059 135.988V148.773L265.443 146.07V133.389ZM280.525 102.414V132.35L272.204 135.156V105.324L280.525 102.414ZM264.923 156.361L257.538 158.96V187.96L264.923 185.362V156.361ZM280.837 151.995L273.452 154.594V183.491L280.837 180.892V151.995ZM273.244 188.688L265.86 191.286V220.287L273.244 217.688V188.688ZM271.996 222.782L264.611 225.38V254.381L271.996 251.782V222.782ZM280.837 271.947L273.452 274.546V303.547L280.837 300.948V271.947ZM285.83 190.975L278.445 193.573V206.254L285.83 203.656V190.975ZM284.79 234.319L277.405 236.918V249.703L284.79 247.105V234.319ZM261.803 210.828L254.314 213.427V226.212L261.803 223.509V210.828ZM271.164 255.836L263.779 258.435V271.116L271.164 268.517V255.836ZM263.571 332.027L256.186 334.626V363.627L263.571 361.028V332.027ZM265.443 368.616L258.059 371.319V384L265.443 381.401V368.616ZM280.109 338.368L272.724 340.967V369.863L280.109 367.265V338.368ZM264.923 391.692L257.538 394.29V423.291L264.923 420.692V391.692ZM280.837 387.222L273.452 389.821V418.821L280.837 416.223V387.222ZM273.244 424.018L265.86 426.617V455.514L273.244 452.915V424.018ZM271.996 458.112L264.611 460.711V489.608L271.996 487.009V458.112ZM280.837 507.278L273.452 509.877V538.773L280.837 536.279V507.278ZM264.611 510.916L257.226 513.515V542.515L264.611 539.917V510.916ZM285.83 426.201L278.445 428.8V441.585L285.83 438.987V426.201ZM284.79 469.65L277.405 472.249V485.034L284.79 482.435V469.65ZM261.803 446.055L254.314 448.757V461.439L261.803 458.84V446.055ZM259.723 476.926L252.234 479.629V492.31L259.723 489.712V476.926ZM247.657 396.265L240.272 398.864V427.864L247.657 425.266V396.265ZM247.657 374.021L240.272 376.62V389.405L247.657 386.806V374.021ZM246.097 347.931L238.608 350.53V363.211L246.097 360.612V347.931ZM247.137 436.284L239.752 438.883V451.668L247.137 449.069V436.284ZM246.617 459.568L239.128 462.166V491.167L246.617 488.568V459.568ZM247.137 514.035L239.752 516.633V545.634L247.137 543.035V514.035ZM155.397 294.815L114.52 284.317V293.568L155.397 304.17V294.815ZM125.026 374.541L110.984 370.903V380.258L125.026 383.792V374.541ZM155.397 312.486L141.46 308.848V318.203L155.397 321.841V312.486ZM155.397 346.164L114.52 335.562V344.917L155.397 355.415V346.164ZM139.379 325.583L125.442 321.945V331.3L139.379 334.938V325.583ZM151.861 361.548L110.984 350.945V360.3L151.861 370.903V361.548ZM151.861 397.513L110.984 387.014V396.369L151.861 406.868V397.513ZM141.044 413.104L127.106 409.466V418.717L141.044 422.355V413.104ZM140.94 428.384L126.898 424.746V434.101L140.94 437.739V428.384ZM124.922 442.105L110.984 438.467V447.822L124.922 451.46V442.105ZM124.922 458.424L110.984 454.786V464.141L124.922 467.779V458.424ZM95.7979 370.903L81.7561 374.541V383.792L95.7979 380.258V370.903ZM65.3221 308.848L51.2803 312.486V321.841L65.3221 318.203V308.848ZM92.1575 335.562L51.2803 346.164V355.415L92.1575 344.917V335.562ZM81.3401 321.945L67.2983 325.583V334.938L81.3401 331.3V321.945ZM95.7979 350.945L54.9207 361.548V370.903L95.7979 360.3V350.945ZM95.7979 387.014L54.9207 397.513V406.868L95.7979 396.369V387.014ZM79.6759 409.466L65.7381 413.104V422.355L79.6759 418.717V409.466ZM79.7799 424.746L65.8421 428.384V437.739L79.7799 434.101V424.746ZM95.7979 438.467L81.7561 442.105V451.46L95.7979 447.822V438.467ZM95.7979 454.786L81.7561 458.424V467.779L95.7979 464.141V454.786ZM92.1575 284.317L51.2803 294.815V304.17L92.1575 293.568V284.317ZM142.292 254.797L128.25 251.159V260.514L142.292 264.152V254.797ZM127.626 270.076L113.688 266.438V275.793L127.626 279.431V270.076ZM155.397 276.209L141.46 272.571V281.926L155.397 285.564V276.209ZM124.922 233.488L110.984 229.85V239.205L124.922 242.739V233.488ZM155.397 241.388L141.46 237.75V247.105L155.397 250.743V241.388ZM151.653 223.301L137.611 219.663V229.018L151.653 232.656V223.301ZM78.5317 251.159L64.49 254.797V264.152L78.5317 260.514V251.159ZM93.0936 266.438L79.0518 270.076V279.431L93.0936 275.793V266.438ZM65.3221 272.571L51.2803 276.209V285.564L65.3221 281.926V272.571ZM95.7979 229.85L81.7561 233.488V242.739L95.7979 239.205V229.85ZM69.0665 219.663L55.1288 223.301V232.656L69.0665 229.018V219.663Z" fill="#F0F8FE"/>
</svg>
