<svg width="12" height="12" viewBox="0 0 12 12" fill="none" xmlns="http://www.w3.org/2000/svg">
<path d="M11.1452 1.03947H8.82492V0.137199C8.82492 0.0751671 8.7752 0.0244141 8.71443 0.0244141H7.94099C7.88022 0.0244141 7.8305 0.0751671 7.8305 0.137199V1.03947H4.29478V0.137199C4.29478 0.0751671 4.24506 0.0244141 4.18429 0.0244141H3.41085C3.35008 0.0244141 3.30036 0.0751671 3.30036 0.137199V1.03947H0.98005C0.735589 1.03947 0.538086 1.24108 0.538086 1.49061V10.8517C0.538086 11.1013 0.735589 11.3029 0.98005 11.3029H11.1452C11.3897 11.3029 11.5872 11.1013 11.5872 10.8517V1.49061C11.5872 1.24108 11.3897 1.03947 11.1452 1.03947ZM10.5928 10.2878H1.53251V4.93054H10.5928V10.2878ZM1.53251 3.97187V2.05454H3.30036V2.73124C3.30036 2.79327 3.35008 2.84403 3.41085 2.84403H4.18429C4.24506 2.84403 4.29478 2.79327 4.29478 2.73124V2.05454H7.8305V2.73124C7.8305 2.79327 7.88022 2.84403 7.94099 2.84403H8.71443C8.7752 2.84403 8.82492 2.79327 8.82492 2.73124V2.05454H10.5928V3.97187H1.53251Z" fill="#1890FF"/>
</svg>
