<svg width="22" height="22" viewBox="0 0 22 22" fill="none" xmlns="http://www.w3.org/2000/svg">
<g clip-path="url(#agenda-icon)">
<path d="M15.0689 22H2.0084C1.81281 22 1.6543 21.8414 1.6543 21.6459V0.354105C1.6543 0.158555 1.81281 0 2.0084 0H15.0689C16.0567 0 16.8575 0.800809 16.8575 1.78862V20.2114C16.8575 21.1992 16.0567 22 15.0689 22Z" fill="#9B9B9B"/>
<path d="M13.7284 7.06505H6.12235C5.87786 7.06505 5.67969 6.86688 5.67969 6.62239V3.03617C5.67969 2.79168 5.87786 2.59351 6.12235 2.59351H13.7284V7.06505Z" fill="#EFF3F5"/>
<path d="M15.0685 0H13.8164C14.8042 0 15.605 0.800809 15.605 1.78862V20.2114C15.605 21.1992 14.8042 22 13.8164 22H15.0684C16.0562 22 16.857 21.1992 16.857 20.2114V1.78862C16.8571 0.800809 16.0563 0 15.0685 0V0Z" fill="#818181"/>
<path d="M3.89005 22H2.0084C1.81281 22 1.6543 21.8414 1.6543 21.6459V0.354105C1.6543 0.158555 1.81281 0 2.0084 0H3.89005V22Z" fill="#595959"/>
<path d="M13.7266 0H15.068V22H13.7266V0Z" fill="#FB636F"/>
<path d="M10.5967 5.83192H7.01948C6.83613 5.83192 6.6875 5.68329 6.6875 5.49995C6.6875 5.3166 6.83613 5.16797 7.01948 5.16797H10.5967C10.7801 5.16797 10.9287 5.3166 10.9287 5.49995C10.9287 5.68329 10.7801 5.83192 10.5967 5.83192Z" fill="#595959"/>
<path d="M12.3853 4.49049H7.01948C6.83613 4.49049 6.6875 4.34186 6.6875 4.15851C6.6875 3.97512 6.83613 3.82654 7.01948 3.82654H12.3853C12.5687 3.82654 12.7173 3.97517 12.7173 4.15851C12.7173 4.34186 12.5687 4.49049 12.3853 4.49049Z" fill="#595959"/>
<path d="M18.1348 19.9833H20.3211C20.3051 20.0475 20.2821 20.1103 20.2524 20.1701L19.3861 21.9022C19.3215 22.0319 19.1369 22.0328 19.071 21.9044C19.0705 21.904 19.0701 21.9031 19.0696 21.9022L18.2033 20.1701C18.2033 20.1696 18.2029 20.1696 18.2029 20.1692C18.1733 20.1099 18.1507 20.0474 18.1348 19.9833Z" fill="#FCD0A3"/>
<path d="M20.3452 1.87804H18.1094V0.442664C18.1094 0.198172 18.3075 0 18.552 0H19.9025C20.147 0 20.3452 0.198172 20.3452 0.442664V1.87804Z" fill="#FB636F"/>
<path d="M18.1094 1.87793H20.3453V19.7739C20.3453 19.8447 20.3368 19.9151 20.3205 19.9832H18.1342C18.1178 19.9151 18.1094 19.8447 18.1094 19.7739V1.87793H18.1094Z" fill="#FCE25C"/>
<path d="M18.8965 1.87793H19.5605V19.9832H18.8965V1.87793Z" fill="#FBD307"/>
</g>
<defs>
<clipPath id="agenda-icon">
<rect width="22" height="22" fill="white"/>
</clipPath>
</defs>
</svg>
