<svg width="18" height="19" viewBox="0 0 18 19" fill="none" xmlns="http://www.w3.org/2000/svg">
<path d="M17.1407 15.0005H15.355V13.2148C15.355 13.1166 15.2746 13.0362 15.1764 13.0362H14.105C14.0068 13.0362 13.9264 13.1166 13.9264 13.2148V15.0005H12.1407C12.0425 15.0005 11.9621 15.0809 11.9621 15.1791V16.2505C11.9621 16.3487 12.0425 16.4291 12.1407 16.4291H13.9264V18.2148C13.9264 18.313 14.0068 18.3934 14.105 18.3934H15.1764C15.2746 18.3934 15.355 18.313 15.355 18.2148V16.4291H17.1407C17.2389 16.4291 17.3193 16.3487 17.3193 16.2505V15.1791C17.3193 15.0809 17.2389 15.0005 17.1407 15.0005ZM5.56702 8.89338C5.54693 8.69918 5.53577 8.50276 5.53577 8.30409C5.53577 7.94918 5.56925 7.6032 5.63175 7.26615C5.64738 7.18579 5.60497 7.1032 5.53131 7.06972C5.22773 6.93356 4.94872 6.74606 4.70764 6.50945C4.42358 6.23402 4.20005 5.9024 4.05132 5.53575C3.90258 5.1691 3.83191 4.77548 3.84381 4.37999C3.86389 3.66347 4.15184 2.98267 4.65407 2.46927C5.20541 1.90454 5.94648 1.59651 6.73443 1.60543C7.44648 1.61213 8.13398 1.88668 8.65407 2.37329C8.83041 2.53847 8.9822 2.72151 9.10943 2.91793C9.15407 2.98713 9.24113 3.01615 9.31702 2.98936C9.70988 2.8532 10.1251 2.75722 10.5514 2.71258C10.6764 2.69918 10.7478 2.56526 10.692 2.45365C9.96657 1.01838 8.48443 0.0273095 6.77014 0.000523742C4.29693 -0.0374227 2.23443 1.9916 2.23443 4.46481C2.23443 5.86659 2.87952 7.11659 3.89068 7.93579C3.18086 8.26392 2.52684 8.71704 1.95988 9.28401C0.736663 10.505 0.0446987 12.1166 5.58151e-05 13.8376C-0.000539955 13.8614 0.00363885 13.8851 0.0123458 13.9073C0.0210527 13.9295 0.0341117 13.9497 0.0507533 13.9667C0.0673949 13.9838 0.0872824 13.9974 0.109244 14.0066C0.131205 14.0159 0.154797 14.0206 0.178627 14.0206H1.43086C1.52684 14.0206 1.6072 13.9447 1.60943 13.8487C1.65184 12.5541 2.17639 11.342 3.09827 10.4224C3.75452 9.76615 4.55809 9.31079 5.43532 9.08981C5.52015 9.06526 5.57818 8.98267 5.56702 8.89338ZM15.6228 8.30409C15.6228 5.86213 13.6608 3.87776 11.2277 3.83981C8.75452 3.80186 6.69425 5.83088 6.69425 8.30409C6.69425 9.70588 7.34157 10.9559 8.3505 11.7751C7.63333 12.1075 6.98046 12.5639 6.42193 13.1233C5.19872 14.3443 4.50675 15.9559 4.46211 17.6746C4.46151 17.6985 4.46569 17.7222 4.4744 17.7443C4.48311 17.7665 4.49617 17.7867 4.51281 17.8038C4.52945 17.8209 4.54934 17.8344 4.5713 17.8437C4.59326 17.8529 4.61685 17.8577 4.64068 17.8577H5.89068C5.98666 17.8577 6.06702 17.7818 6.06925 17.6858C6.11166 16.3911 6.63622 15.1791 7.55809 14.2595C8.52015 13.2974 9.79693 12.7684 11.1585 12.7684C13.6228 12.7684 15.6228 10.7706 15.6228 8.30409ZM13.1786 10.3242C12.6384 10.8644 11.9219 11.1612 11.1585 11.1612C10.3951 11.1612 9.67863 10.8644 9.13845 10.3242C8.86889 10.056 8.65591 9.7365 8.51212 9.38451C8.36834 9.03253 8.29668 8.65527 8.3014 8.27508C8.30809 7.54293 8.6005 6.83535 9.11166 6.31079C9.64738 5.76168 10.3639 5.45588 11.1295 5.44695C11.8862 5.44026 12.6206 5.7349 13.1608 6.26392C13.7143 6.80633 14.0179 7.53177 14.0179 8.30409C14.0157 9.06749 13.7188 9.78401 13.1786 10.3242Z" fill="black" fill-opacity="0.85"/>
</svg>
