<svg width="22" height="22" viewBox="0 0 22 22" fill="none" xmlns="http://www.w3.org/2000/svg">
<path d="M11.3438 19.9375H0.6875V5.15625L5.15625 0.6875H15.125V8.9375" fill="#C7E2FC"/>
<path d="M0.6875 5.15625V16.1184C1.50941 16.3656 2.37291 16.5 3.26562 16.5C8.67625 16.5 13.0625 11.6521 13.0625 5.67188C13.0625 3.87372 12.6637 2.17972 11.9622 0.6875H5.15625L0.6875 5.15625Z" fill="#EBF7FE"/>
<path d="M15.125 21.3125C18.5423 21.3125 21.3125 18.5423 21.3125 15.125C21.3125 11.7077 18.5423 8.9375 15.125 8.9375C11.7077 8.9375 8.9375 11.7077 8.9375 15.125C8.9375 18.5423 11.7077 21.3125 15.125 21.3125Z" fill="#4472B2"/>
<path d="M15.125 19.9375C17.7829 19.9375 19.9375 17.7829 19.9375 15.125C19.9375 12.4671 17.7829 10.3125 15.125 10.3125C12.4671 10.3125 10.3125 12.4671 10.3125 15.125C10.3125 17.7829 12.4671 19.9375 15.125 19.9375Z" fill="white"/>
<path d="M14.7812 10.3125H15.4688V11.3438H14.7812V10.3125Z" fill="#8892A0"/>
<path d="M14.7812 18.9062H15.4688V19.9375H14.7812V18.9062Z" fill="#8892A0"/>
<path d="M18.9062 14.7812H19.9375V15.4688H18.9062V14.7812Z" fill="#8892A0"/>
<path d="M10.3125 14.7812H11.3438V15.4688H10.3125V14.7812Z" fill="#8892A0"/>
<path d="M16.8438 15.4688H15.125C14.9352 15.4688 14.7812 15.3151 14.7812 15.125V12.0312H15.4688V14.7812H16.8438V15.4688Z" fill="#8892A0"/>
<path d="M17.6289 18.1182L18.115 17.632L18.8024 18.3194L18.3163 18.8056L17.6289 18.1182Z" fill="#8892A0"/>
<path d="M11.4414 11.9307L11.9275 11.4445L12.6149 12.1319L12.1288 12.6181L11.4414 11.9307Z" fill="#8892A0"/>
<path d="M17.6289 12.1325L18.3163 11.4451L18.8024 11.9312L18.115 12.6186L17.6289 12.1325Z" fill="#8892A0"/>
<path d="M11.4414 18.3187L12.1288 17.6313L12.6149 18.1174L11.9275 18.8048L11.4414 18.3187Z" fill="#8892A0"/>
<path d="M5.15625 0.6875V5.15625H0.6875" fill="#C1C8D1"/>
<path d="M2.0625 15.125H5.5V18.5625H2.0625V15.125Z" fill="white"/>
<path d="M3.78209 17.875C3.66762 17.875 3.56003 17.8176 3.49609 17.7221L2.80859 16.6908L3.38059 16.3096L3.75975 16.8778L4.85872 14.9545L5.45547 15.2955L4.08047 17.7018C4.02134 17.8052 3.91306 17.8706 3.79378 17.8747C3.79 17.875 3.78587 17.875 3.78209 17.875Z" fill="#8892A0"/>
<path d="M2.0625 10.3125H5.5V13.75H2.0625V10.3125Z" fill="white"/>
<path d="M3.78209 13.0625C3.66762 13.0625 3.56003 13.0051 3.49609 12.9096L2.80859 11.8783L3.38059 11.4971L3.75975 12.0653L4.85872 10.142L5.45547 10.483L4.08047 12.8893C4.02134 12.9927 3.91306 13.0581 3.79378 13.0622C3.79 13.0625 3.78587 13.0625 3.78209 13.0625Z" fill="#8892A0"/>
<path d="M1.71875 8.59375H2.40625V9.28125H1.71875V8.59375Z" fill="#8892A0"/>
<path d="M3.09375 8.59375H9.625V9.28125H3.09375V8.59375Z" fill="#8892A0"/>
<path d="M8.9375 7.21875H9.625V7.90625H8.9375V7.21875Z" fill="#8892A0"/>
<path d="M1.71875 7.21875H8.25V7.90625H1.71875V7.21875Z" fill="#8892A0"/>
<path d="M11.6875 1.71875L10.3125 3.09375V5.15625H13.0625V3.09375L11.6875 1.71875Z" fill="#F5B953"/>
<path d="M11.6875 1.71875L10.3125 3.09375V4.40241C10.461 4.444 10.6153 4.46875 10.7752 4.46875C11.7078 4.46875 12.486 3.71319 12.6744 2.70566L11.6875 1.71875Z" fill="#F9D18B"/>
<path d="M13.8516 4.36806L11.6883 2.20484L9.52513 4.36806L9.03906 3.88199L11.4453 1.47574C11.5797 1.34134 11.797 1.34134 11.9314 1.47574L14.3376 3.88199L13.8516 4.36806Z" fill="#976947"/>
<path d="M15.125 20.2812C12.2818 20.2812 9.96875 17.9682 9.96875 15.125C9.96875 12.2818 12.2818 9.96875 15.125 9.96875C17.9682 9.96875 20.2812 12.2818 20.2812 15.125C20.2812 17.9682 17.9682 20.2812 15.125 20.2812ZM15.125 10.6562C12.661 10.6562 10.6562 12.661 10.6562 15.125C10.6562 17.589 12.661 19.5938 15.125 19.5938C17.589 19.5938 19.5938 17.589 19.5938 15.125C19.5938 12.661 17.589 10.6562 15.125 10.6562Z" fill="#2D4D83"/>
</svg>
