<svg width="22" height="22" viewBox="0 0 22 22" fill="none" xmlns="http://www.w3.org/2000/svg">
<g clip-path="url(#office-building-icon)">
<path d="M2.88867 2.77869H19.1107V21.0712H2.88867V2.77869Z" fill="#DBD8DD"/>
<path d="M6.43164 0H15.5662V21.0709H6.43164V0Z" fill="#EEEFEE"/>
<path d="M3.61914 3.61206H5.703V6.07121H3.61914V3.61206Z" fill="#69B0EE"/>
<path d="M3.61914 7.1543H5.703V9.61344H3.61914V7.1543Z" fill="#69B0EE"/>
<path d="M3.61914 10.6963H5.703V13.1554H3.61914V10.6963Z" fill="#69B0EE"/>
<path d="M3.61914 14.2386H5.703V16.6977H3.61914V14.2386Z" fill="#69B0EE"/>
<path d="M3.61914 17.7806H5.703V20.2397H3.61914V17.7806Z" fill="#69B0EE"/>
<path d="M16.2129 3.61206H18.2967V6.07121H16.2129V3.61206Z" fill="#69B0EE"/>
<path d="M16.2129 7.1543H18.2967V9.61344H16.2129V7.1543Z" fill="#69B0EE"/>
<path d="M16.2129 10.6963H18.2967V13.1554H16.2129V10.6963Z" fill="#69B0EE"/>
<path d="M16.2129 14.2386H18.2967V16.6977H16.2129V14.2386Z" fill="#69B0EE"/>
<path d="M16.2129 17.7806H18.2967V20.2397H16.2129V17.7806Z" fill="#69B0EE"/>
<path d="M7.36914 1.04309H14.63V2.39959H7.36914V1.04309Z" fill="#69B0EE"/>
<path d="M7.36719 3.48352H14.6299V4.84002H7.36719V3.48352Z" fill="#69B0EE"/>
<path d="M7.36719 5.92529H14.6299V7.2818H7.36719V5.92529Z" fill="#69B0EE"/>
<path d="M7.36719 8.367H14.6299V9.72351H7.36719V8.367Z" fill="#69B0EE"/>
<path d="M7.36719 10.8087H14.6299V12.1652H7.36719V10.8087Z" fill="#69B0EE"/>
<path d="M7.36719 13.2505H14.6299V14.607H7.36719V13.2505Z" fill="#69B0EE"/>
<path d="M7.75781 15.682H14.2416V21.071H7.75781V15.682Z" fill="#575B6D"/>
<path opacity="0.5" d="M16.621 20.2397H16.543L17.4208 17.7806H17.4992L16.621 20.2397Z" fill="#EEEFEE"/>
<path opacity="0.5" d="M17.1989 20.2397H16.7441L17.622 17.7806H18.0768L17.1989 20.2397Z" fill="#EEEFEE"/>
<path opacity="0.5" d="M16.621 16.6975H16.543L17.4208 14.2386H17.4992L16.621 16.6975Z" fill="#EEEFEE"/>
<path opacity="0.5" d="M17.1989 16.6975H16.7441L17.622 14.2386H18.0768L17.1989 16.6975Z" fill="#EEEFEE"/>
<path opacity="0.5" d="M16.621 13.1554H16.543L17.4208 10.6963H17.4992L16.621 13.1554Z" fill="#EEEFEE"/>
<path opacity="0.5" d="M17.1989 13.1554H16.7441L17.622 10.6963H18.0768L17.1989 13.1554Z" fill="#EEEFEE"/>
<path opacity="0.5" d="M16.621 9.61344H16.543L17.4208 7.1543H17.4992L16.621 9.61344Z" fill="#EEEFEE"/>
<path opacity="0.5" d="M17.1989 9.61344H16.7441L17.622 7.1543H18.0768L17.1989 9.61344Z" fill="#EEEFEE"/>
<path opacity="0.5" d="M16.621 6.0712H16.543L17.4208 3.612H17.4992L16.621 6.0712Z" fill="#EEEFEE"/>
<path opacity="0.5" d="M17.1989 6.0712H16.7441L17.622 3.612H18.0768L17.1989 6.0712Z" fill="#EEEFEE"/>
<path opacity="0.5" d="M11.0908 1.04309L10.3004 2.39959H10.0547L10.8405 1.04309H11.0908Z" fill="#EEEFEE"/>
<path opacity="0.5" d="M12.848 1.04309L12.0624 2.39959H10.8242L11.6101 1.04309H12.848Z" fill="#EEEFEE"/>
<path opacity="0.5" d="M11.0908 3.48376L10.3004 4.83999H10.0547L10.8405 3.48376H11.0908Z" fill="#EEEFEE"/>
<path opacity="0.5" d="M12.848 3.48376L12.0624 4.83999H10.8242L11.6101 3.48376H12.848Z" fill="#EEEFEE"/>
<path opacity="0.5" d="M11.0908 5.92419L10.3004 7.2807H10.0547L10.8405 5.92419H11.0908Z" fill="#EEEFEE"/>
<path opacity="0.5" d="M12.848 5.92419L12.0624 7.2807H10.8242L11.6101 5.92419H12.848Z" fill="#EEEFEE"/>
<path opacity="0.5" d="M11.0908 8.36456L10.3004 9.72107H10.0547L10.8405 8.36456H11.0908Z" fill="#EEEFEE"/>
<path opacity="0.5" d="M12.848 8.36456L12.0624 9.72107H10.8242L11.6101 8.36456H12.848Z" fill="#EEEFEE"/>
<path opacity="0.5" d="M11.0908 10.8052L10.3004 12.1615H10.0547L10.8405 10.8052H11.0908Z" fill="#EEEFEE"/>
<path opacity="0.5" d="M12.848 10.8052L12.0624 12.1615H10.8242L11.6101 10.8052H12.848Z" fill="#EEEFEE"/>
<path opacity="0.5" d="M11.0908 13.2456L10.3004 14.6021H10.0547L10.8405 13.2456H11.0908Z" fill="#EEEFEE"/>
<path opacity="0.5" d="M12.848 13.2456L12.0624 14.6021H10.8242L11.6101 13.2456H12.848Z" fill="#EEEFEE"/>
<path opacity="0.5" d="M3.97261 20.2397H3.89453L4.77239 17.7806H4.85069L3.97261 20.2397Z" fill="#EEEFEE"/>
<path opacity="0.5" d="M4.5505 20.2397H4.0957L4.97356 17.7806H5.42835L4.5505 20.2397Z" fill="#EEEFEE"/>
<path opacity="0.5" d="M3.97261 16.6975H3.89453L4.77239 14.2386H4.85069L3.97261 16.6975Z" fill="#EEEFEE"/>
<path opacity="0.5" d="M4.5505 16.6975H4.0957L4.97356 14.2386H5.42835L4.5505 16.6975Z" fill="#EEEFEE"/>
<path opacity="0.5" d="M3.97261 13.1554H3.89453L4.77239 10.6963H4.85069L3.97261 13.1554Z" fill="#EEEFEE"/>
<path opacity="0.5" d="M4.5505 13.1554H4.0957L4.97356 10.6963H5.42835L4.5505 13.1554Z" fill="#EEEFEE"/>
<path opacity="0.5" d="M3.97261 9.61344H3.89453L4.77239 7.1543H4.85069L3.97261 9.61344Z" fill="#EEEFEE"/>
<path opacity="0.5" d="M4.5505 9.61344H4.0957L4.97356 7.1543H5.42835L4.5505 9.61344Z" fill="#EEEFEE"/>
<path opacity="0.5" d="M3.97261 6.0712H3.89453L4.77239 3.612H4.85069L3.97261 6.0712Z" fill="#EEEFEE"/>
<path opacity="0.5" d="M4.5505 6.0712H4.0957L4.97356 3.612H5.42835L4.5505 6.0712Z" fill="#EEEFEE"/>
<path d="M1.92578 20.8676H20.0731V22.0001H1.92578V20.8676Z" fill="#BBBBCD"/>
<path d="M10.6602 15.4681H11.3379V20.8603H10.6602V15.4681Z" fill="#EEEFEE"/>
</g>
<defs>
<clipPath id="office-building-icon">
<rect width="22" height="22" fill="white"/>
</clipPath>
</defs>
</svg>
