<svg width="22" height="19" viewBox="0 0 22 19" fill="none" xmlns="http://www.w3.org/2000/svg">
<path d="M18.6943 4.67464V6.96976H3.30664V4.67464C3.30664 4.58763 3.33807 4.50418 3.39402 4.44265C3.44997 4.38112 3.52586 4.34656 3.60498 4.34656H18.3959C18.4751 4.34656 18.551 4.38112 18.6069 4.44265C18.6629 4.50418 18.6943 4.58763 18.6943 4.67464Z" fill="#62667C"/>
<path d="M5.0332 0H16.9655V6.96973H5.0332V0Z" fill="#EEEFEE"/>
<path d="M20.8069 6.61572H1.1931C0.534168 6.61572 0 7.20315 0 7.92777V17.6874C0 18.412 0.534168 18.9995 1.1931 18.9995H20.8069C21.4658 18.9995 22 18.412 22 17.6874V7.92777C22 7.20315 21.4658 6.61572 20.8069 6.61572Z" fill="#DBD8DD"/>
<path d="M0 10.3678H22V11.0092H0V10.3678Z" fill="#62667C"/>
<path d="M2.85807 8.54705C2.8578 8.66509 2.82575 8.7804 2.76595 8.87842C2.70615 8.97645 2.62129 9.0528 2.52207 9.09784C2.42285 9.14287 2.31372 9.15458 2.20846 9.13148C2.10319 9.10838 2.00651 9.05151 1.93061 8.96804C1.85471 8.88457 1.803 8.77825 1.78199 8.6625C1.76098 8.54674 1.77163 8.42673 1.81258 8.31762C1.85354 8.20851 1.92297 8.11519 2.0121 8.04943C2.10124 7.98366 2.2061 7.94841 2.31344 7.94812C2.385 7.94797 2.45588 7.96335 2.52203 7.9934C2.58817 8.02344 2.64826 8.06755 2.69887 8.1232C2.74947 8.17884 2.78958 8.24493 2.8169 8.31767C2.84422 8.3904 2.85821 8.46836 2.85807 8.54705Z" fill="#62667C"/>
<path d="M4.7194 8.54705C4.71913 8.66509 4.68708 8.7804 4.62728 8.87842C4.56748 8.97645 4.48261 9.0528 4.3834 9.09784C4.28418 9.14287 4.17505 9.15458 4.06979 9.13148C3.96452 9.10838 3.86784 9.05151 3.79194 8.96804C3.71604 8.88457 3.66432 8.77825 3.64332 8.6625C3.62231 8.54674 3.63296 8.42673 3.67391 8.31762C3.71487 8.20851 3.78429 8.11519 3.87343 8.04943C3.96257 7.98366 4.06742 7.94841 4.17476 7.94812C4.24633 7.94797 4.31721 7.96335 4.38335 7.9934C4.4495 8.02344 4.50959 8.06755 4.56019 8.1232C4.6108 8.17884 4.65091 8.24493 4.67823 8.31767C4.70555 8.3904 4.71954 8.46836 4.7194 8.54705Z" fill="#62667C"/>
<path d="M6.58073 8.54705C6.58046 8.66509 6.5484 8.7804 6.4886 8.87842C6.42881 8.97645 6.34394 9.0528 6.24472 9.09784C6.1455 9.14287 6.03638 9.15458 5.93111 9.13148C5.82585 9.10838 5.72917 9.05151 5.65327 8.96804C5.57737 8.88457 5.52565 8.77825 5.50465 8.6625C5.48364 8.54674 5.49429 8.42673 5.53524 8.31762C5.57619 8.20851 5.64562 8.11519 5.73476 8.04943C5.8239 7.98366 5.92875 7.94841 6.03609 7.94812C6.10765 7.94797 6.17854 7.96335 6.24468 7.9934C6.31082 8.02344 6.37092 8.06755 6.42152 8.1232C6.47212 8.17884 6.51224 8.24493 6.53956 8.31767C6.56688 8.3904 6.58087 8.46836 6.58073 8.54705Z" fill="#62667C"/>
<path d="M16.9655 14.4461V19H5.0332V14.4461C5.03412 14.0986 5.15997 13.7657 5.38329 13.5199C5.60661 13.2741 5.90927 13.1354 6.22523 13.134H15.7711C16.0615 13.1339 16.3421 13.2501 16.5604 13.4609C16.7786 13.6716 16.9196 13.9626 16.9569 14.2794C16.9627 14.3347 16.9656 14.3904 16.9655 14.4461Z" fill="#575B6D"/>
<path d="M16.9657 14.4461V19H6.06445V15.5811C6.06442 15.4088 6.09525 15.2381 6.1552 15.0789C6.21515 14.9197 6.30303 14.7751 6.41383 14.6532C6.52462 14.5314 6.65616 14.4348 6.80093 14.3688C6.9457 14.3029 7.10086 14.269 7.25755 14.269H16.8034C16.8542 14.269 16.905 14.2723 16.9555 14.2788C16.9619 14.3343 16.9653 14.3901 16.9657 14.4461Z" fill="#62667C"/>
<path d="M5.97852 1.08752H16.0223V1.44187H5.97852V1.08752Z" fill="#DBD8DD"/>
<path d="M5.97852 2.52234H16.0223V2.87668H5.97852V2.52234Z" fill="#DBD8DD"/>
<path d="M5.97852 3.95679H16.0223V4.31113H5.97852V3.95679Z" fill="#DBD8DD"/>
<path d="M5.97852 5.3916H16.0223V5.74594H5.97852V5.3916Z" fill="#DBD8DD"/>
</svg>
