<svg width="18" height="18" viewBox="0 0 18 18" fill="none" xmlns="http://www.w3.org/2000/svg">
<path d="M5.5 5.5H3V3H5.5V5.5Z" fill="black"/>
<path fill-rule="evenodd" clip-rule="evenodd" d="M8.5 0H0V8.5H8.5V0ZM7 1.5H1.5V7H7V1.5Z" fill="black"/>
<path d="M16 11.5H18V9.5H16V11.5Z" fill="black"/>
<path d="M16 11.5V13.5H14V11.5H16Z" fill="black"/>
<path d="M16 16H18V14H16V16Z" fill="black"/>
<path d="M18 16.5V18H14V16.5H18Z" fill="black"/>
<path d="M9.5 14H12.5V15.32H10.9822V18H9.5V14Z" fill="black"/>
<path d="M9.5 13V9.5H13.5V10.8659H10.8192V13H9.5Z" fill="black"/>
<path d="M15 5.5H12.5V3H15V5.5Z" fill="black"/>
<path fill-rule="evenodd" clip-rule="evenodd" d="M9.5 0H18V8.5H9.5V0ZM11 1.5H16.5V7H11V1.5Z" fill="black"/>
<path d="M5.5 15H3V12.5H5.5V15Z" fill="black"/>
<path fill-rule="evenodd" clip-rule="evenodd" d="M0 9.5H8.5V18H0V9.5ZM1.5 11H7V16.5H1.5V11Z" fill="black"/>
</svg>
