<svg width="22" height="22" viewBox="0 0 22 22" fill="none" xmlns="http://www.w3.org/2000/svg">
<g clip-path="url(#clip0)">
<path d="M11.0006 3.71249C13.2006 3.71249 15.2173 4.62914 16.684 6.04999L18.7923 3.94164C16.8215 1.97084 14.0715 0.733337 11.0006 0.733337C7.97564 0.733337 5.22564 1.97084 3.20898 3.94168L5.31733 6.05003C6.78398 4.58334 8.80064 3.71249 11.0006 3.71249Z" fill="#F8B64C"/>
<path d="M5.31665 6.05L3.20835 3.94165C1.2375 5.95835 0 8.70835 0 11.7334C0 14.7584 1.2375 17.5084 3.20835 19.525L5.3167 17.4167C3.85004 15.95 2.9792 13.9333 2.9792 11.7333C2.97915 9.53335 3.85 7.51665 5.31665 6.05Z" fill="#54C0EB"/>
<path d="M18.7919 3.94165L16.6836 6.05C18.1502 7.51665 19.0211 9.53335 19.0211 11.7334C19.0211 13.9334 18.1044 15.95 16.6836 17.4167L18.7919 19.5251C20.7627 17.5542 22.0002 14.8042 22.0002 11.7334C22.0002 8.70835 20.7627 5.95835 18.7919 3.94165Z" fill="#F1543F"/>
<path d="M16.6831 6.05002L14.6664 8.06668C13.7039 7.15002 12.4206 6.55418 10.9998 6.55418C9.57899 6.55418 8.2498 7.15002 7.33314 8.06668L5.31641 6.05002C6.7831 4.58337 8.79975 3.71252 10.9998 3.71252C13.1998 3.71252 15.2164 4.58337 16.6831 6.05002Z" fill="#FFD15C"/>
<path d="M7.33267 15.4L5.31602 17.4166C3.84936 15.95 2.97852 13.9333 2.97852 11.7333C2.97852 9.53327 3.89517 7.51662 5.31602 6.04993L7.33267 8.06658C6.41602 8.98323 5.82017 10.3124 5.82017 11.7332C5.77432 13.1541 6.37017 14.4833 7.33267 15.4Z" fill="#84DBFF"/>
<path d="M19.0202 11.7334C19.0202 13.9334 18.1036 15.95 16.6827 17.4167L14.666 15.4C15.5827 14.4375 16.1785 13.1542 16.1785 11.7334C16.1785 10.3125 15.5827 8.98335 14.666 8.0667L16.6827 6.05005C18.1494 7.51666 19.0202 9.53335 19.0202 11.7334Z" fill="#FF7058"/>
<path d="M18.0577 7.37915L12.0994 11.9167C12.0077 12.4667 11.5494 12.8333 10.9994 12.8333C10.3577 12.8333 9.85352 12.3291 9.85352 11.6875C9.85352 11.0458 10.3577 10.5416 10.9994 10.5416C11.1369 10.5416 11.2285 10.5416 11.366 10.5875L18.0577 7.37915Z" fill="#40596B"/>
<path d="M14.9414 21.2666H7.05806C6.09556 21.2666 5.31641 20.4875 5.31641 19.525C5.31641 18.5625 6.09556 17.7833 7.05806 17.7833H14.8956C15.8581 17.7833 16.6372 18.5625 16.6372 19.525C16.6831 20.4875 15.9039 21.2666 14.9414 21.2666Z" fill="#CDD6E0"/>
<path d="M10.9994 12.1918C11.2525 12.1918 11.4577 11.9866 11.4577 11.7335C11.4577 11.4804 11.2525 11.2751 10.9994 11.2751C10.7462 11.2751 10.541 11.4804 10.541 11.7335C10.541 11.9866 10.7462 12.1918 10.9994 12.1918Z" fill="white"/>
</g>
<defs>
<clipPath id="clip0">
<rect width="22" height="22" fill="white"/>
</clipPath>
</defs>
</svg>
