<svg width="22" height="22" viewBox="0 0 22 22" fill="none" xmlns="http://www.w3.org/2000/svg">
<g clip-path="url(#teamwork-icon)">
<path d="M7.28691 5.35004L7.287 5.34814H7.21348H1.42877H1.41889V5.3484C0.649488 5.35373 0.0273438 5.97893 0.0273438 6.74957V13.1842C0.0273438 13.619 0.379773 13.9714 0.814531 13.9714H1.8383L2.12388 19.8415C2.18231 21.0427 3.17317 21.9865 4.37574 21.9865C5.5527 21.9865 6.52254 21.0627 6.57969 19.8871L6.86745 13.9715H7.82763C8.26239 13.9715 8.61482 13.619 8.61482 13.1843V6.74948C8.61495 6.0002 8.02679 5.38823 7.28691 5.35004Z" fill="#155A8E"/>
<path d="M7.2861 5.35004L7.28619 5.34814H7.21267H4.32031V21.9852C4.33853 21.9856 4.35662 21.9865 4.37497 21.9865C5.55193 21.9865 6.52177 21.0627 6.57892 19.8871L6.86668 13.9715H7.82686C8.26162 13.9715 8.61405 13.619 8.61405 13.1843V6.74948C8.61414 6.0002 8.02598 5.38823 7.2861 5.35004Z" fill="#124D7A"/>
<path d="M17.711 4.51927C18.9515 4.51927 19.9571 3.51364 19.9571 2.27313C19.9571 1.03261 18.9515 0.0269775 17.711 0.0269775C16.4705 0.0269775 15.4648 1.03261 15.4648 2.27313C15.4648 3.51364 16.4705 4.51927 17.711 4.51927Z" fill="#1A6FAF"/>
<path d="M20.6443 5.36358L20.6444 5.36169H20.5709H14.7862H14.7763V5.36195C14.0069 5.36728 13.3848 5.99248 13.3848 6.76312V13.1978C13.3848 13.6325 13.7372 13.985 14.172 13.985H15.1957L15.4813 19.8551C15.5397 21.0562 16.5306 22.0001 17.7332 22.0001C18.9101 22.0001 19.88 21.0763 19.9371 19.9007L20.2249 13.985H21.1851C21.6198 13.985 21.9722 13.6326 21.9722 13.1978V6.76308C21.9724 6.0137 21.3842 5.40178 20.6443 5.36358Z" fill="#124D7A"/>
<path d="M13.9666 5.33661L13.9667 5.33472H13.8932H8.10845H8.09857V5.33497C7.32917 5.3403 6.70703 5.9655 6.70703 6.73614V13.1708C6.70703 13.6055 7.05946 13.958 7.49422 13.958H8.51799L8.80356 19.8281C8.862 21.0292 9.85285 21.9731 11.0554 21.9731C12.2324 21.9731 13.2022 21.0493 13.2594 19.8737L13.5471 13.958H14.5073C14.9421 13.958 15.2945 13.6056 15.2945 13.1708V6.73606C15.2946 5.98677 14.7065 5.37481 13.9666 5.33661Z" fill="#1E80CD"/>
<path d="M11.0313 4.4923C12.2718 4.4923 13.2775 3.48666 13.2775 2.24615C13.2775 1.00563 12.2718 0 11.0313 0C9.79079 0 8.78516 1.00563 8.78516 2.24615C8.78516 3.48666 9.79079 4.4923 11.0313 4.4923Z" fill="#1A6FAF"/>
<path d="M4.35162 4.5056C5.59213 4.5056 6.59776 3.49997 6.59776 2.25945C6.59776 1.01894 5.59213 0.0133057 4.35162 0.0133057C3.1111 0.0133057 2.10547 1.01894 2.10547 2.25945C2.10547 3.49997 3.1111 4.5056 4.35162 4.5056Z" fill="#1A6FAF"/>
<path d="M13.9658 5.33661L13.9659 5.33472H13.8924H11V21.9717C11.0182 21.9722 11.0363 21.9731 11.0547 21.9731C12.2316 21.9731 13.2015 21.0493 13.2586 19.8737L13.5464 13.958H14.5066C14.9413 13.958 15.2937 13.6056 15.2937 13.1708V6.73606C15.2939 5.98677 14.7057 5.37481 13.9658 5.33661Z" fill="#1A6FAF"/>
<path d="M12.0787 10.595C12.0911 10.7332 12.0538 10.8713 11.9736 10.9846L11.2142 12.0577C11.1651 12.127 11.0854 12.1683 11.0005 12.1683C10.9155 12.1683 10.8358 12.1271 10.7867 12.0577L10.0273 10.9846C9.94716 10.8713 9.9099 10.7332 9.92224 10.595L10.2848 6.53918H11.716L12.0787 10.595Z" fill="#D5D3DA"/>
<path d="M20.6455 5.36358L20.6456 5.36169H20.5721H17.6797V21.9987C17.6979 21.9992 17.716 22.0001 17.7343 22.0001C18.9113 22.0001 19.8811 21.0763 19.9383 19.9007L20.2261 13.985H21.1862C21.621 13.985 21.9734 13.6326 21.9734 13.1978V6.76308C21.9736 6.0137 21.3854 5.40178 20.6455 5.36358Z" fill="#155A8E"/>
<path d="M4.35352 0.0135498V4.50576C5.59398 4.50576 6.59957 3.50016 6.59957 2.2597C6.59961 1.01915 5.59398 0.0135498 4.35352 0.0135498Z" fill="#17649D"/>
<path d="M13.2779 2.24606C13.2779 1.0056 12.2723 0 11.0318 0C11.0211 0 11.0107 0.0006875 11 0.000816406V4.49139C11.0107 4.49152 11.0211 4.49221 11.0318 4.49221C12.2723 4.49221 13.2779 3.48661 13.2779 2.24606Z" fill="#17649D"/>
<path d="M17.7129 0.0269775V4.51919C18.9534 4.51919 19.959 3.51359 19.959 2.27313C19.959 1.03262 18.9534 0.0269775 17.7129 0.0269775Z" fill="#17649D"/>
<path d="M11.9731 10.9846C12.0533 10.8713 12.0905 10.7332 12.0782 10.595L11.7156 6.53918H11V12.1683C11.0849 12.1683 11.1647 12.1271 11.2137 12.0577L11.9731 10.9846Z" fill="#BAB8BE"/>
<path d="M9.82081 5.7697C9.71858 5.87192 9.71858 6.03774 9.82081 6.13996L10.8155 7.13464C10.9177 7.23686 11.0835 7.23686 11.1858 7.13464L12.1804 6.13996C12.2827 6.03774 12.2827 5.87192 12.1804 5.7697L11.7453 5.33459H10.2559L9.82081 5.7697Z" fill="#EBEAF2"/>
<path d="M12.1798 5.7697L11.7447 5.33459H11V7.21126C11.067 7.21126 11.134 7.1857 11.1851 7.13461L12.1798 6.13992C12.2821 6.03774 12.2821 5.87192 12.1798 5.7697Z" fill="#D5D3DA"/>
</g>
<defs>
<clipPath id="teamwork-icon">
<rect width="22" height="22" fill="white"/>
</clipPath>
</defs>
</svg>
